<?xml version="1.0" standalone="no"?>
<!DOCTYPE svg PUBLIC "-//W3C//DTD SVG 1.1//EN" "http://www.w3.org/Graphics/SVG/1.1/DTD/svg11.dtd">
<svg xmlns="http://www.w3.org/2000/svg">
<metadata>Copyright (C) 2016 by original authors @ fontello.com</metadata>
<defs>
<font id="qbt-font" horiz-adv-x="1000" >
<font-face font-family="qbt-font" font-weight="400" font-stretch="normal" units-per-em="1000" ascent="850" descent="-150" />
<missing-glyph horiz-adv-x="1000" />
<glyph glyph-name="search" unicode="&#xe601;" d="M643 386q0 103-74 176t-176 74-177-74-73-176 73-177 177-73 176 73 74 177z m286-465q0-29-22-50t-50-21q-30 0-50 21l-191 191q-100-69-223-69-80 0-153 31t-125 84-84 125-31 153 31 152 84 126 125 84 153 31 152-31 126-84 84-126 31-152q0-123-69-223l191-191q21-21 21-51z" horiz-adv-x="928.6" />

<glyph glyph-name="angle-double-right" unicode="&#xe602;" d="M332 314q0-7-6-13l-260-260q-5-5-12-5t-13 5l-28 28q-6 6-6 13t6 13l219 219-219 220q-6 5-6 12t6 13l28 28q5 6 13 6t12-6l260-260q6-5 6-13z m214 0q0-7-5-13l-260-260q-6-5-13-5t-13 5l-28 28q-5 6-5 13t5 13l219 219-219 220q-5 5-5 12t5 13l28 28q6 6 13 6t13-6l260-260q5-5 5-13z" horiz-adv-x="571.4" />

<glyph glyph-name="iconfont-close" unicode="&#xe603;" d="M812 606l-56 56-256-255-255 255-57-56 255-256-255-255 57-57 255 255 256-255 56 57-255 255z" horiz-adv-x="1000" />

<glyph glyph-name="clock" unicode="&#xe604;" d="M460 810q190 0 325-135t135-325-135-325-325-135-325 135-135 325 135 325 325 135z m0-820q150 0 255 106t105 254q0 150-105 255t-255 105q-148 0-254-105t-106-255q0-148 106-254t254-106z m36 620l0-244 150-150-50-50-170 170 0 274 70 0z" horiz-adv-x="920" />

<glyph glyph-name="signal" unicode="&#xe605;" d="M688-97l0 894 111 0 0-894-111 0z m-224 0l0 671 112 0 0-671-112 0z m-223 0l0 448 112 0 0-448-112 0z m-223 0l0 224 112 0 0-224-112 0z" horiz-adv-x="817" />

<glyph glyph-name="down" unicode="&#xe606;" d="M405 334l213 0-308-306-310 308 213 0-3 337 195 0 0-339z" horiz-adv-x="618" />

<glyph glyph-name="weibo" unicode="&#xe607;" d="M0 178q0 161 184 347 117 116 236 162 56 23 97 23 45 0 72-27 26-26 26-72 0-31-12-72-4-14 3-17t16-1l10 4q96 40 170 40t106-42q15-22 15-52 0-31-16-71-7-10-2-17t8-9 14-5q62-19 106-62t44-107q0-59-41-120t-111-113-178-84-229-33q-131 0-247 38t-194 116-77 174z m125-48q10-101 125-161 92-49 209-49 29 0 60 3 153 15 255 97 92 75 92 165 0 9-1 18-10 100-125 160-93 49-210 49-29 0-59-3-101-10-183-51t-126-101q-38-53-38-109 0-9 1-18z m160-62q-13 29-13 59 0 35 18 70 31 64 104 96 45 20 91 20 27 0 54-7 76-20 109-82 17-32 17-66 0-32-15-65-31-71-109-104-44-19-88-19-34 0-67 11-73 23-101 87z m56 19q6-25 30-35 13-6 27-6 12 0 24 4 28 9 43 33 10 16 10 32 0 7-3 15-6 24-30 34-13 5-26 5-12 0-25-4-27-9-41-32-11-16-11-33 0-7 2-13z m141 79q3-9 13-13 5-2 10-2t9 2q11 4 16 13t2 18-12 13q-9 3-19 0t-16-13q-3-6-3-12l0-6z m321 621q-1 5-1 10 0 13 8 25 10 16 29 21 34 7 68 7 51 0 100-15 83-27 143-93t78-153q7-35 7-68 0-51-16-98l0-1q-6-18-23-27-11-5-22-5-7 0-15 2-19 6-27 23-5 11-5 21 0 8 2 15l0 1q11 34 11 70 0 23-4 48-13 62-56 109t-102 66q-35 10-70 10-24 0-49-5-5-1-10-1-14 0-26 8-16 11-20 30z m40-157q-1 5-1 10 0 10 6 21 9 14 26 18 19 4 37 4 67 0 115-53 29-33 38-75 3-17 3-33 0-24-8-48-5-16-20-23-9-5-18-5-7 0-13 2-16 5-24 20-4 9-4 18 0 7 2 13 4 14 4 26 0 28-21 50-22 26-54 26-10 0-20-2-5-1-9-1-11 0-21 7-14 9-18 25z" horiz-adv-x="1235" />

<glyph glyph-name="bookmark" unicode="&#xe608;" d="M0-56l0 906 609 0 0-1000-304 305-305-305 0 94z" horiz-adv-x="609" />

<glyph glyph-name="location" unicode="&#xe609;" d="M0 473q0 156 110 267t267 110 267-110 110-267q0-123-53-193l-324-430-324 430q-53 70-53 193z m219 0q0-66 46-112t112-46 112 46 46 112-46 112-112 46-112-46-46-112z" horiz-adv-x="754" />

<glyph glyph-name="up-open" unicode="&#xe610;" d="M0 174l352 352 148 148 148-148 352-352-148-148-352 351-352-351z" horiz-adv-x="1000" />

<glyph glyph-name="qrcode" unicode="&#xe611;" d="M0-150l0 455 455 0 0-455-455 0z m0 545l0 455 455 0 0-455-455 0z m90-455l273 0 0 273-273 0 0-273z m0 547l273 0 0 273-273 0 0-273z m92-455l0 92 91 0 0-92-91 0z m0 545l0 89 91 0 0-89-91 0z m363-727l0 455 271 0 0-92 94 0 0 92 90 0 0-273-273 0 0 90-90 0 0-272-92 0z m0 545l0 455 455 0 0-455-455 0z m92 92l273 0 0 273-273 0 0-273z m90-547l89 0 0-90-89 0 0 90z m0 637l0 89 89 0 0-89-89 0z m183-637l90 0 0-90-90 0 0 90z" horiz-adv-x="1000" />

<glyph glyph-name="key" unicode="&#xe612;" d="M0 350q0 113 80 193t193 81q96 0 169-58t97-148l461 0 0-117-64 0 0-218-116 0 0 218-54 0 0-150-118 0 0 150-105 0q-18-95-94-160t-176-64q-113 0-193 80t-80 193z m127 0q0-60 43-103t103-43 104 43 43 103-43 104-104 43-103-43-43-104z" horiz-adv-x="1000" />

<glyph glyph-name="help-circled" unicode="&#xe613;" d="M454 810q190 2 326-130t140-322q2-190-131-327t-323-141q-190-2-327 131t-139 323q-4 190 130 327t324 139z m-2-740q30 0 49 19t19 47q2 30-17 49t-49 19l-2 0q-28 0-47-18t-21-46q0-30 19-49t47-21l2 0z m166 328q26 34 26 78 0 78-54 116-52 38-134 38-64 0-104-26-68-42-72-146l0-4 110 0 0 4q0 26 16 54 16 24 54 24 40 0 52-20 16-20 16-44 0-18-16-40-8-12-20-20l-6-4q-6-4-16-11t-20-15-21-17-17-17q-14-20-18-78l0-8 108 0 0 4q0 12 4 28 6 20 28 36l28 18q46 34 56 50z" horiz-adv-x="920" />

<glyph glyph-name="iconfont-wenbenshuru" unicode="&#xe614;" d="M921 639q-8-9-15-16l-12-12q-6-6-11-10l-135 136q8 8 20 19t20 17q20 16 43 14t37-9q15-8 34-28t28-42q5-14 7-33t-16-36z m-382-111l155 155 135-135q-85-85-155-154-30-29-58-57t-52-51-39-38l-18-18q-7-7-16-14t-20-12-30-12-41-13-40-12-29-7q-19-2-20 4t1 24q1 10 5 30t8 39 9 38 7 24q5 11 11 19t15 18z m339-145q21 0 40-10t19-41l0-227q0-28-10-51t-29-41-41-28-47-9l-558 0q-24 0-47 10t-40 29-29 43-11 52l0 557q0 20 11 42t29 39 39 29 44 11l233 0q28 0 40-20t11-42-11-40-40-20l-183 0q-21 0-34-14t-13-36l0-470q0-20 13-33t34-14l463 0q21 0 36 14t15 33l0 186q0 14 7 24t16 16 21 9 22 2z" horiz-adv-x="1000" />

<glyph glyph-name="right-dir-1" unicode="&#xe615;" d="M321 350q0-14-10-25l-250-250q-11-11-25-11t-25 11-11 25v500q0 15 11 25t25 11 25-11l250-250q10-10 10-25z" horiz-adv-x="357.1" />

<glyph glyph-name="youtube-1" unicode="&#xe616;" d="M0-29l0 758 1000 0 0-758-1000 0z m355 157l350 220-350 219 0-439z" horiz-adv-x="1000" />

<glyph glyph-name="angle-double-down" unicode="&#xe617;" d="M600 368q0-7-6-13l-260-260q-5-6-13-6t-12 6l-260 260q-6 6-6 13t6 13l27 28q6 5 13 5t13-5l219-220 220 220q5 5 13 5t12-5l28-28q6-6 6-13z m0 214q0-7-6-13l-260-260q-5-5-13-5t-12 5l-260 260q-6 6-6 13t6 13l27 28q6 5 13 5t13-5l219-219 220 219q5 5 13 5t12-5l28-28q6-6 6-13z" horiz-adv-x="642.9" />

<glyph glyph-name="angle-double-up" unicode="&#xe618;" d="M600 118q0-7-6-13l-28-28q-5-5-12-5t-13 5l-220 219-219-219q-5-5-13-5t-13 5l-27 28q-6 6-6 13t6 13l260 260q5 5 12 5t13-5l260-260q6-6 6-13z m0 214q0-7-6-13l-28-28q-5-5-12-5t-13 5l-220 220-219-220q-5-5-13-5t-13 5l-27 28q-6 6-6 13t6 13l260 260q5 6 12 6t13-6l260-260q6-6 6-13z" horiz-adv-x="642.9" />

<glyph glyph-name="graduation-cap" unicode="&#xe619;" d="M0 600q0 33 21 59t51 33l407 94q11 1 21 1t22-1l406-94q31-8 51-33t21-59-21-59-51-33l-84-19 0-264q0-68-84-112t-260-44-260 44-84 112l0 264-84 19q-31 8-51 33t-21 59z m63 0q0-25 23-31l406-94 16 0 406 94q23 6 23 31t-23 31l-406 94-16 0-406-94q-23-6-23-31z m156-375q0-20 29-40t97-37 155-17 155 17 97 37 29 40l0 250-259-61q-12-1-22-1t-21 1l-260 61 0-250z m656-250q0 31 20 78t42 47 43-47 20-78q0-25-19-44t-44-19-43 19-19 44z m31 188l0 281q0 13 9 22t22 9 23-9 9-22l0-281q0-14-9-23t-23-9-22 9-9 23z" horiz-adv-x="1000" />

<glyph glyph-name="paper-plane" unicode="&#xe620;" d="M0 191q-2 18 14 28l937 625q8 6 18 6t18-6q15-10 13-31l-156-938q-4-13-16-21-7-4-15-4-6 0-12 2l-303 121-64-107q-10-16-28-16t-27 16l-115 201-244 97q-18 8-20 27z m98 11l189-77q2-2 5-3l3-2 527 564z m221-104l87-152 504 787z m183-62q12-2 20-4l265-108 125 748z" horiz-adv-x="1000" />

<glyph glyph-name="attach-1" unicode="&#xe621;" d="M0 99q0 91 64 155l456 451q82 82 199 82t199-82 82-199-82-199l-344-342q-21-23-44-1t1 44l338 340q65 63 65 153t-65 156-155 64-153-64l-454-448q-44-45-44-109t45-110 111-46 109 45l457 451q27 27 27 66t-27 67-66 27-67-27l-341-344q-24-22-45 1t0 44l341 344q47 44 112 44t110-45 46-111-45-111l-457-449q-64-65-155-65t-154 64-64 154z" horiz-adv-x="1000" />

<glyph glyph-name="comment" unicode="&#xe622;" d="M0 413q0 156 147 265t353 109 354-109 146-265-146-266-354-109q-47 0-96 7-29-35-89-78t-122-55l-9 0q-12 0-20 8t-8 20q0 6 2 12 0 1 13 21t18 29 13 30 13 36 4 32l0 2q-102 53-160 134t-59 177z m63 0q0-75 48-143t137-111q33-18 33-57l0-6q0-41-21-92 60 37 95 80 18 24 49 24 4 0 8-2 45-6 88-6 182 0 310 92t127 221-127 220-310 92-310-92-127-220z m93 0q0 89 102 154t242 64q16 0 16-15t-16-16q-125 0-219-57t-93-130q0-16-16-16t-16 16z" horiz-adv-x="1000" />

<glyph glyph-name="doc" unicode="&#xe623;" d="M0-25l0 625q0 39 27 66t67 28l31 0 0 62q0 39 27 67t67 27l687 0q39 0 67-27t27-67l0-781q0-53-36-89t-89-36l-750 0q-53 0-89 36t-36 89z m63 0q0-25 18-44t44-19l750 0q25 0 44 19t18 44l0 781q0 14-8 23t-23 8l-687 0q-14 0-23-8t-8-23l0-750q0-13-9-22t-23-9-22 9-9 22l0 625-31 0q-14 0-23-9t-8-22l0-625z m187 16q0 15 16 15l250 0q15 0 15-15t-15-16l-250 0q-16 0-16 16z m0 93q0 16 16 16l250 0q15 0 15-16t-15-15l-250 0q-16 0-16 15z m0 94q0 16 16 16l250 0q15 0 15-16 0-6-5-11t-10-4l-250 0q-16 0-16 15z m0 94q0 16 16 16l593 0q16 0 16-16t-16-16l-593 0q-16 0-16 16z m0 94q0 15 16 15l593 0q16 0 16-15t-16-16l-593 0q-16 0-16 16z m0 109l0 219q0 13 9 22t22 9l219 0q14 0 22-9t9-22l0-219q0-14-9-22t-22-9l-219 0q-13 0-22 9t-9 22z m63 31l156 0 0 156-156 0 0-156z m281-515q0 15 15 15l250 0q16 0 16-15t-16-16l-250 0q-15 0-15 16z m0 93q0 16 15 16l250 0q16 0 16-16t-16-15l-250 0q-15 0-15 15z m0 94q0 16 15 16l250 0q16 0 16-16 0-6-5-11t-11-4l-250 0q-15 0-15 15z m0 281q0 16 15 16l250 0q16 0 16-16t-16-15l-250 0q-15 0-15 15z m0 94q0 16 15 16l250 0q16 0 16-16t-16-15l-250 0q-15 0-15 15z m0 94q0 15 15 15l250 0q16 0 16-15t-16-16l-250 0q-15 0-15 16z" horiz-adv-x="1000" />

<glyph glyph-name="user" unicode="&#xe624;" d="M4-105q-14 43 25 70 119 78 291 116-84 105-119 255-10 55-11 122t23 149 66 138q84 105 223 105t222-105q43-57 67-138t22-149-11-122q-35-150-119-255 172-38 291-116 39-27 26-71t-61-44l-875 0q-21 0-38 13t-22 32z m60 17l875 0q-109 73-267 108l-79 16q-45-30-91-30t-92 30l-78-16q-160-35-268-108z m193 602q-13-103 16-208t96-186l10-14q56-65 123-65t123 65l9 14q67 82 96 186t16 208q-14 113-76 193t-168 80-168-80-77-193z" horiz-adv-x="1003" />

<glyph glyph-name="stackoverflow-1" unicode="&#xe625;" d="M0-150l0 395 64 0 0-329 493 0 0 329 66 0 0-395-623 0z m113 133l0 80 395 0 0-80-395 0z m2 146l6 80 393-27-6-80z m16 176l19 78 383-93-19-81z m62 205l41 71 340-200-41-70z m182 213l66 45 221-326-68-45z m250 117l82 10 47-391-80-9z" horiz-adv-x="754" />

<glyph glyph-name="mail" unicode="&#xe626;" d="M0-29l324 342 176-100 176 100 324-342-1000 0z m0 114l0 414 254-147z m0 503l0 141 1000 0 0-141-500-285z m746-236l254 147 0-414z" horiz-adv-x="1000" />

<glyph glyph-name="user-1" unicode="&#xe627;" d="M0-150l0 156q0 24 58 58t159 71q99 35 137 73t37 101q0 29-27 72t-32 59q-12 35-29 135-10 52-14 93-2 22 6 50t28 60 67 52 110 20 110-20 67-52 28-60 6-50q-4-41-14-93-17-100-29-135-6-16-32-59t-27-72q0-64 37-101t137-73q217-80 217-129l0-156-1000 0z" horiz-adv-x="1000" />

<glyph glyph-name="lock" unicode="&#xe628;" d="M0-150l0 578 139 0q-2 166 25 231 39 88 116 139t169 52q94 0 172-54t115-137q26-59 26-121l0-110 150 0 0-578-912 0z m322 578l256 0 0 112q-2 52-38 88t-91 38q-52 2-87-34t-40-94l0-110z" horiz-adv-x="912" />

<glyph glyph-name="off" unicode="&#xe629;" d="M857 350q0-87-34-166t-91-137-137-92-166-34-167 34-136 92-92 137-34 166q0 102 45 191t126 151q24 18 54 14t46-28q18-23 14-53t-28-47q-54-41-84-101t-30-127q0-58 22-111t62-91 91-61 111-23 110 23 92 61 61 91 22 111q0 68-30 127t-84 101q-24 18-28 47t14 53q17 24 47 28t53-14q81-61 126-151t45-191z m-357 429v-358q0-29-21-50t-50-21-51 21-21 50v358q0 29 21 50t51 21 50-21 21-50z" horiz-adv-x="857.1" />

<glyph glyph-name="plus" unicode="&#xe630;" d="M550 400q30 0 30-50t-30-50l-210 0 0-210q0-30-50-30t-50 30l0 210-210 0q-30 0-30 50t30 50l210 0 0 210q0 30 50 30t50-30l0-210 210 0z" horiz-adv-x="580" />

<glyph glyph-name="ok" unicode="&#xe631;" d="M1179 778q-250-222-600-750l-115-179q-144 180-464 500l107 107 286-250q150 150 279 272t206 187 131 111 77 59l21 14q4 0 11-2t26-19 35-50z" horiz-adv-x="1179" />

<glyph glyph-name="down-dir" unicode="&#xe632;" d="M571 457q0-14-10-25l-250-250q-11-11-25-11t-25 11l-250 250q-11 11-11 25t11 25 25 11h500q14 0 25-11t10-25z" horiz-adv-x="571.4" />

<glyph glyph-name="up-dir" unicode="&#xe633;" d="M571 171q0-14-10-25t-25-10h-500q-15 0-25 10t-11 25 11 26l250 250q10 10 25 10t25-10l250-250q10-11 10-26z" horiz-adv-x="571.4" />

<glyph glyph-name="left-dir" unicode="&#xe634;" d="M357 600v-500q0-14-10-25t-26-11-25 11l-250 250q-10 11-10 25t10 25l250 250q11 11 25 11t26-11 10-25z" horiz-adv-x="357.1" />

<glyph glyph-name="up" unicode="&#xe635;" d="M213 366l-213 0 308 307 310-309-213 0 3-336-195 0 0 338z" horiz-adv-x="618" />

<glyph glyph-name="upload" unicode="&#xe636;" d="M714 29q0 14-10 25t-25 10-26-10-10-25 10-26 26-10 25 10 10 26z m143 0q0 14-10 25t-26 10-25-10-10-25 10-26 25-10 26 10 10 26z m72 125v-179q0-22-16-38t-38-16h-821q-23 0-38 16t-16 38v179q0 22 16 38t38 15h238q12-31 39-51t62-20h143q34 0 61 20t40 51h238q22 0 38-15t16-38z m-182 361q-9-22-33-22h-143v-250q0-15-10-25t-25-11h-143q-15 0-25 11t-11 25v250h-143q-23 0-33 22-9 22 8 39l250 250q10 10 25 10t25-10l250-250q18-17 8-39z" horiz-adv-x="928.6" />

<glyph glyph-name="stop" unicode="&#xe637;" d="M526 650q74 0 74-64l0-470q0-66-74-66l-450 0q-76 0-76 66l0 470q0 36 18 50t58 14l450 0z" horiz-adv-x="600" />

<glyph glyph-name="phone" unicode="&#xe638;" d="M461 290q162 162 118 206l-8 8q-30 30-41 48t-4 54 49 88q20 24 37 39t35 16 30 1 29-13 24-18 26-25 21-22q48-48-6-194t-204-294q-150-150-295-205t-193-7q-2 2-23 22t-25 25-18 24-13 31 2 30 15 35 38 37q42 34 70 47t54 2 35-18 39-37q44-44 208 120z" horiz-adv-x="800" />

<glyph glyph-name="star" unicode="&#xe639;" d="M2 460q11 37 101 37h225l69 207v1q19 56 44 75t49 0 43-75l1-1 68-207h226q58 0 85-17t14-47-59-63l-5-4-176-126 67-207 2-2q27-85-4-109t-105 29l-3 2-2 1-177 127-179-128-2-2q-73-52-105-29t-4 109l1 1v2l68 206-177 126-2 2-2 2q-73 52-61 90z" horiz-adv-x="931.2" />

<glyph glyph-name="right-small" unicode="&#xe640;" d="M328 595q15 15 36 15t37-15l245-245-245-245q-15-15-36-15-22 0-37 15t-15 37 15 37l120 119-395 0q-22 0-37 15t-16 37 16 37 37 16l395 0-120 118q-15 15-15 37t15 37z" horiz-adv-x="646" />

<glyph glyph-name="plus-circled" unicode="&#xe641;" d="M679 314v72q0 14-11 25t-25 10h-143v143q0 15-11 25t-25 11h-71q-15 0-25-11t-11-25v-143h-143q-14 0-25-10t-10-25v-72q0-14 10-25t25-10h143v-143q0-15 11-25t25-11h71q15 0 25 11t11 25v143h143q14 0 25 10t11 25z m178 36q0-117-57-215t-156-156-215-58-216 58-155 156-58 215 58 215 155 156 216 58 215-58 156-156 57-215z" horiz-adv-x="857.1" />

<glyph glyph-name="angle-double-left" unicode="&#xe642;" d="M350 82q0-7-6-13l-28-28q-5-5-12-5t-13 5l-260 260q-6 6-6 13t6 13l260 260q5 6 13 6t12-6l28-28q6-5 6-13t-6-12l-219-220 219-219q6-6 6-13z m214 0q0-7-5-13l-28-28q-6-5-13-5t-13 5l-260 260q-6 6-6 13t6 13l260 260q6 6 13 6t13-6l28-28q5-5 5-13t-5-12l-220-220 220-219q5-6 5-13z" horiz-adv-x="571.4" />

<glyph glyph-name="down-bold" unicode="&#xe643;" d="M760 366l-380-380-380 380 192 0 0 350 376 0 0-350 192 0z" horiz-adv-x="760" />

<glyph glyph-name="up-bold" unicode="&#xe644;" d="M760 336l-192 0 0-350-376 0 0 350-192 0 380 380z" horiz-adv-x="760" />

<glyph glyph-name="desktop" unicode="&#xe645;" d="M0 104l0 660 1000 0 0-660-363 0 0-96 88 0 0-72-450 0 0 72 88 0 0 96-363 0z m123 125l754 0 0 410-754 0 0-410z" horiz-adv-x="1000" />

<glyph glyph-name="camera" unicode="&#xe646;" d="M500 450q64 0 107-44t43-106-44-106-106-44-106 44-44 106 44 106 106 44z m400 150q42 0 71-29t29-71l0-450q0-40-29-70t-71-30l-800 0q-40 0-70 30t-30 70l0 450q0 42 30 71t70 29l120 0q28 0 40 30l30 92q10 28 40 28l340 0q30 0 40-28l30-92q12-30 40-30l120 0z m-400-550q104 0 177 73t73 177-73 177-177 73-177-73-73-177 73-177 177-73z m366 380q14 0 24 11t10 25-10 24-24 10q-36 0-36-34 0-16 11-26t25-10z" horiz-adv-x="1000" />

<glyph glyph-name="map" unicode="&#xe647;" d="M984 600q16-10 16-30l0-584q0-20-16-30-8-6-16-6t-18 6l-216 136-216-136q-18-10-34 0l-218 136-216-136q-16-10-34 0-16 10-16 30l0 584q0 20 16 30l234 146q18 10 34 0l216-136 218 136q16 10 32 0z m-750-450l0 506-168-104 0-506z m234-104l0 506-168 104 0-506z m234 104l0 506-170-104 0-506z m232-104l0 506-168 104 0-506z" horiz-adv-x="1000" />

<glyph glyph-name="heart-empty" unicode="&#xe648;" d="M790 642q70-64 70-156t-70-156l-360-330-360 330q-70 64-70 156t70 156q64 58 152 58t150-58l58-52 56 52q64 58 152 58t152-58z m-54-260q42 40 42 104 0 66-38 100-38 38-102 38-52 0-104-48l-104-92-106 92q-48 48-102 48-64 0-104-38-38-36-38-100 0-66 44-104l306-286z" horiz-adv-x="860" />

<glyph glyph-name="down-circle" unicode="&#xe649;" d="M1000 349q0-136-67-251t-182-182-251-67-251 67-182 182-67 251 67 251 182 182 251 67 251-67 182-182 67-251z m-500-186l232 233-71 71-161-161-161 161-71-71z" horiz-adv-x="1000" />

<glyph glyph-name="menu" unicode="&#xe650;" d="M857 100v-71q0-15-10-25t-26-11h-785q-15 0-25 11t-11 25v71q0 15 11 25t25 11h785q15 0 26-11t10-25z m0 286v-72q0-14-10-25t-26-10h-785q-15 0-25 10t-11 25v72q0 14 11 25t25 10h785q15 0 26-10t10-25z m0 285v-71q0-15-10-25t-26-11h-785q-15 0-25 11t-11 25v71q0 15 11 26t25 10h785q15 0 26-10t10-26z" horiz-adv-x="857.1" />

<glyph glyph-name="move" unicode="&#xe651;" d="M1000 350q0-14-11-25l-142-143q-11-11-26-11t-25 11-10 25v72h-215v-215h72q14 0 25-10t11-25-11-26l-143-142q-10-11-25-11t-25 11l-143 142q-11 11-11 26t11 25 25 10h72v215h-215v-72q0-14-10-25t-25-11-26 11l-142 143q-11 11-11 25t11 25l142 143q11 11 26 11t25-11 10-25v-72h215v215h-72q-14 0-25 10t-11 25 11 26l143 142q11 11 25 11t25-11l143-142q11-11 11-26t-11-25-25-10h-72v-215h215v72q0 14 10 25t25 11 26-11l142-143q11-10 11-25z" horiz-adv-x="1000" />

<glyph glyph-name="eye" unicode="&#xe652;" d="M929 314q-85 132-213 197 34-58 34-125 0-104-73-177t-177-73-177 73-73 177q0 67 34 125-128-65-213-197 75-114 187-182t242-68 242 68 187 182z m-402 215q0 11-8 19t-19 7q-70 0-120-50t-50-119q0-11 8-19t19-8 19 8 8 19q0 48 34 82t82 34q11 0 19 8t8 19z m473-215q0-19-11-38-78-129-210-206t-279-77-279 77-210 206q-11 19-11 38t11 39q78 128 210 205t279 78 279-78 210-205q11-20 11-39z" horiz-adv-x="1000" />

<glyph glyph-name="trash" unicode="&#xe653;" d="M275 825c-14 0-25-11-25-25l0-75-200 0c-28 0-50-22-50-50 0-28 22-50 50-50l650 0c28 0 50 22 50 50 0 28-22 50-50 50l-200 0 0 75c0 14-11 25-25 25l-200 0z m25-50l150 0 0-50-150 0 0 50z m-250-200c-28 0-54-23-49-50l99-600c5-27 22-50 50-50l450 0c28 0 45 23 50 50l99 600c5 27-21 50-49 50l-650 0z" horiz-adv-x="750" />

<glyph glyph-name="minus" unicode="&#xe654;" d="M786 439v-107q0-22-16-38t-38-15h-678q-23 0-38 15t-16 38v107q0 23 16 38t38 16h678q22 0 38-16t16-38z" horiz-adv-x="785.7" />

<glyph glyph-name="star-empty" unicode="&#xe655;" d="M3 436q-12 31 16 50t91 18h242l74 222v1q14 45 33 68t40 23q20 0 39-23t33-68l1-1 73-222h242q63 0 91-18t16-50-64-68l-5-4-190-135 74-221 1-3q19-60 11-91t-40-32q-37 0-88 38l-2 2-3 1-189 136-192-137-3-2q-52-39-88-39-31 0-40 32t11 92l1 3 74 221-190 135-2 3-3 1q-51 37-64 68z m165-26l203-145-21-65-57-173 206 147 205-147-57 173-21 65 203 145h-251l-21 65-58 175-80-240h-251z" horiz-adv-x="997.6" />

<glyph glyph-name="filter" unicode="&#xe656;" d="M783 685q9-23-8-39l-275-275v-414q0-23-22-33-7-3-14-3-15 0-25 11l-143 143q-10 11-10 25v271l-275 275q-18 16-8 39 9 22 33 22h714q23 0 33-22z" horiz-adv-x="785.7" />

<glyph glyph-name="eye-off" unicode="&#xe657;" d="M310 105l43 79q-48 35-76 88t-27 114q0 67 34 125-128-65-213-197 94-144 239-209z m217 424q0 11-8 19t-19 7q-70 0-120-50t-50-119q0-11 8-19t19-8 19 8 8 19q0 48 34 82t82 34q11 0 19 8t8 19z m202 106q0-4 0-5-59-105-176-316t-176-316l-28-50q-5-9-15-9-7 0-75 39-9 6-9 16 0 7 25 49-80 36-147 96t-117 137q-11 17-11 38t11 39q86 131 212 207t277 76q50 0 100-10l31 54q5 9 15 9 3 0 10-3t18-9 18-10 18-10 10-7q9-5 9-15z m21-249q0-78-44-142t-117-92l157 281q4-26 4-47z m250-72q0-19-11-38-22-36-61-81-84-96-194-149t-234-53l41 74q119 10 219 76t169 171q-65 100-158 164l35 63q53-36 102-86t81-102q11-19 11-39z" horiz-adv-x="1000" />

<glyph glyph-name="attention" unicode="&#xe658;" d="M571 83v106q0 8-5 13t-12 5h-108q-7 0-12-5t-5-13v-106q0-8 5-13t12-6h108q7 0 12 6t5 13z m-1 208l10 257q0 6-5 10-7 6-14 6h-122q-7 0-14-6-5-4-5-12l9-255q0-5 6-9t13-3h103q8 0 13 3t6 9z m-7 522l428-786q20-35-1-70-10-17-26-26t-35-10h-858q-18 0-35 10t-26 26q-21 35-1 70l429 786q9 17 26 27t36 10 36-10 27-27z" horiz-adv-x="1000" />

<glyph glyph-name="cw" unicode="&#xe659;" d="M857 707v-250q0-14-10-25t-26-11h-250q-23 0-32 23-10 22 7 38l77 77q-82 77-194 77-58 0-111-23t-91-61-62-91-22-111 22-111 62-91 91-61 111-23q66 0 125 29t100 82q4 6 13 7 8 0 14-5l76-77q5-4 6-11t-5-13q-60-74-147-114t-182-41q-87 0-167 34t-136 92-92 137-34 166 34 166 92 137 136 92 167 34q82 0 158-31t137-88l72 72q16 18 39 8 22-9 22-33z" horiz-adv-x="857.1" />

<glyph glyph-name="cog" unicode="&#xe660;" d="M571 350q0 59-41 101t-101 42-101-42-42-101 42-101 101-42 101 42 41 101z m286 61v-124q0-7-4-13t-11-7l-104-16q-10-30-21-51 19-27 59-77 6-6 6-13t-5-13q-15-21-55-61t-53-39q-7 0-14 5l-77 60q-25-13-51-21-9-76-16-104-4-16-20-16h-124q-8 0-14 5t-6 12l-16 103q-27 9-50 21l-79-60q-6-5-14-5-8 0-14 6-70 64-92 94-4 5-4 13 0 6 5 12 8 12 28 37t30 40q-15 28-23 55l-102 15q-7 1-11 7t-5 13v124q0 7 5 13t10 7l104 16q8 25 22 51-23 32-60 77-6 7-6 14 0 5 5 12 15 20 55 60t53 40q7 0 15-5l77-60q24 13 50 21 9 76 17 104 3 16 20 16h124q7 0 13-5t7-12l15-103q28-9 50-20l80 59q5 5 13 5 7 0 14-5 72-67 92-95 4-5 4-12 0-7-4-13-9-12-29-37t-30-40q14-28 23-54l102-16q7-1 12-7t4-13z" horiz-adv-x="857.1" />

<glyph glyph-name="block" unicode="&#xe661;" d="M465 797q184 0 315-131t131-316-131-315-315-132-316 132-131 315 131 316 316 131z m-1-112q-138 0-236-98t-98-236q0-107 62-194l466 466q-87 62-194 62z m0-669q138 0 237 97t98 238q0 106-62 193l-466-466q87-62 193-62z" horiz-adv-x="928" />

<glyph glyph-name="right-circle" unicode="&#xe662;" d="M1000 349q0-136-67-251t-182-182-251-67-251 67-182 182-67 251 67 251 182 182 251 67 251-67 182-182 67-251z m-547-232l233 232-233 232-71-71 161-161-161-161z" horiz-adv-x="1000" />

<glyph glyph-name="users" unicode="&#xe663;" d="M0 49q20 7 60 22t69 26 50 22q37 19 57 56t21 76q0 27-31 64-19 21-33 60-45 18-45 76 0 43 14 61-5 39-9 82-5 55 26 108t84 84 110 32q43 0 85-19t73-50 48-72 14-83q-4-55-8-82 14-19 14-61 0-58-45-76-15-41-32-60-32-37-32-64 0-39 20-76t58-56q29-15 92-38t113-43 66-38q18-17 28-47t10-51l1-21h-878v168z m705 299q0 34 12 50-5 32-7 67-4 45 21 89t69 72 90 27 89-27 69-72 22-89q-2-35-8-67 12-16 12-50 0-48-36-62-12-33-27-50-9-10-13-16t-9-16-4-20q0-32 17-62t47-46q17-9 42-19t60-22 50-19v-135h-254q0 4 0 11t-3 26-7 36-15 38-23 33q-23 25-53 44t-79 37q27 34 27 78 0 10-5 20t-8 16-12 16q-14 15-27 49-37 16-37 63z" horiz-adv-x="1201.2" />

<glyph glyph-name="volume-down" unicode="&#xe664;" d="M0 141l0 418 236 0 358 291 0-1000-358 291-236 0z m656 37q74 74 74 174 0 104-74 180l73 74q103-106 107-256 0-144-107-246z" horiz-adv-x="836" />

<glyph glyph-name="newspaper" unicode="&#xe665;" d="M700 800q42 0 71-29t29-71l0-700q0-40-29-70t-71-30l-600 0q-40 0-70 30t-30 70l0 700q0 42 30 71t70 29l600 0z m0-800l0 700-600 0 0-700 600 0z m-250 250l0-50-250 0 0 50 250 0z m150 200l0-50-200 0 0 50 200 0z m-200 50l0 100 200 0 0-100-200 0z m-50 100l0-200-150 0 0 200 150 0z m-50-250l0-50-100 0 0 50 100 0z m50-50l0 50 250 0 0-50-250 0z m250-150l0-50-400 0 0 50 400 0z m-100 50l0 50 100 0 0-50-100 0z" horiz-adv-x="800" />

<glyph glyph-name="left-open" unicode="&#xe666;" d="M0 350l148 149 352 351 148-148-351-352 351-352-148-148-352 352z" horiz-adv-x="648" />

<glyph glyph-name="spin4" unicode="&#xe667;" d="M498 850c-114 0-228-39-320-116l0 0c173 140 428 130 588-31 134-134 164-332 89-495-10-29-5-50 12-68 21-20 61-23 84 0 3 3 12 15 15 24 71 180 33 393-112 539-99 98-228 147-356 147z m-409-274c-14 0-29-5-39-16-3-3-13-15-15-24-71-180-34-393 112-539 185-185 479-195 676-31l0 0c-173-140-428-130-589 31-134 134-163 333-89 495 11 29 6 50-12 68-11 11-27 17-44 16z" horiz-adv-x="1001" />

<glyph glyph-name="right-open" unicode="&#xe668;" d="M0-2l352 352-352 352 148 148 352-351 148-149-148-148-352-352z" horiz-adv-x="648" />

<glyph glyph-name="briefcase" unicode="&#xe669;" d="M357 707h286v72h-286v-72z m643-357v-268q0-37-26-63t-63-26h-822q-36 0-63 26t-26 63v268h375v-89q0-15 11-25t25-11h178q15 0 25 11t11 25v89h375z m-429 0v-71h-142v71h142z m429 268v-214h-1000v214q0 37 26 63t63 26h197v89q0 23 15 38t38 16h322q22 0 38-16t15-38v-89h197q37 0 63-26t26-63z" horiz-adv-x="1000" />

<glyph glyph-name="download-cloud" unicode="&#xe670;" d="M714 332q0 8-5 13t-13 5h-125v196q0 8-5 13t-12 5h-108q-7 0-12-5t-5-13v-196h-125q-8 0-13-5t-5-13q0-8 5-13l196-196q5-5 13-5t13 5l196 196q5 6 5 13z m357-125q0-89-62-151t-152-63h-607q-103 0-177 73t-73 177q0 72 39 134t105 92q-1 17-1 24 0 118 84 202t202 84q87 0 159-49t105-129q40 35 93 35 59 0 101-42t42-101q0-43-23-77 72-17 119-76t46-133z" horiz-adv-x="1071.4" />

<glyph glyph-name="megaphone" unicode="&#xe671;" d="M929 493q29 0 50-21t21-51-21-50-50-21v-214q0-29-22-50t-50-22q-233 194-453 212-32-10-51-36t-17-57 22-51q-11-19-13-37t4-32 18-31 27-28 35-28q-17-32-63-46t-94-7-73 31q-4 13-17 49t-18 53-12 50-9 56 2 55 12 62h-68q-36 0-63 26t-26 63v107q0 37 26 63t63 26h268q243 0 500 215 29 0 50-22t22-50v-214z m-72-337v532q-220-168-428-191v-151q210-23 428-190z" horiz-adv-x="1000" />

<glyph glyph-name="heart" unicode="&#xe672;" d="M380 18l-285 283c-66 65-95 137-95 200 0 109 73 182 183 182 102 0 137-48 197-117 60 69 95 117 198 117 110 0 182-73 182-182 0-63-29-135-95-200z" horiz-adv-x="760" />

<glyph glyph-name="android" unicode="&#xe673;" d="M0 201l0 269q0 26 19 45t44 18q26 0 45-18t18-45l0-269q0-26-18-44t-45-19-44 19-19 44z m173-100l0 418 574 0 0-418q0-26-18-44t-45-19l-448 0q-26 0-44 19t-19 44z m0 465l574 0q0 115-85 189t-202 74-202-74-85-189z m101 316q0 8 7 8 3 0 7-2l49-89-15-8q-48 88-48 91z m15-807q0 27 19 45t47 18q25 0 44-19t19-44l0-202q0-28-19-46t-47-17q-26 0-44 18t-19 45l0 202z m5 620q0 16 12 28t28 11 28-11 11-28q0-17-11-28t-29-12q-16 0-27 12t-12 28z m208-620q0 27 20 45t46 18q26 0 45-18t18-45l0-202q0-28-19-46t-47-17q-26 0-44 18t-19 45l0 202z m45 620q0 16 12 28t28 11 28-11 11-28q0-17-12-28t-28-12-27 12-12 28z m36 104q2 3 14 29t24 44 18 18 7-9l0-2-48-89z m211-598l0 268q0 26 19 45t44 19 45-19 18-45l0-268q0-26-18-44t-45-19-45 19-18 44z" horiz-adv-x="920" />

<glyph glyph-name="fire" unicode="&#xe674;" d="M0 135q0 76 18 167t33 156 13 170-33 222l20-14q19-13 51-44t64-69 65-97 48-118q63 94 65 186l31-35q29-36 61-106t31-139l15 20q16 21 33 60t16 75q96-119 135-251t10-249q-14-51-31-84t-56-68-107-50-169-17q-137 0-225 85t-88 200z m63 0q0-88 69-155t181-68q74 0 128 11t84 26 49 42 27 44 14 49q39 159-64 344-61-103-145-172 0 92-10 176t-25 113q-23-58-113-185 0 8-12 51t-44 122-75 137q8-125-33-310-31-143-31-225z m50-23q0 146 41 263l16 47 16-41q19-56 66-164 20 30 49 74l47 75 0-53q0-66 23-135 39 20 68 41t43 36 36 40l27 30 6-32q21-119-20-218-4-10-13-10-4 0-6 2-14 6-8 19 27 73 19 168-58-66-154-113l-15-6-6 16q-24 66-28 111-31-45-58-84l-16-21-12 23q-43 98-64 149-25-84-25-217 0-16-16-16t-16 16z" horiz-adv-x="688" />

<glyph glyph-name="link" unicode="&#xe675;" d="M294 116q14 14 34 14t36-14q32-34 0-70l-42-40q-56-56-132-56-78 0-134 56t-56 132q0 78 56 134l148 148q70 68 144 77t128-43q16-16 16-36t-16-36q-36-32-70 0-50 48-132-34l-148-146q-26-26-26-64t26-62q26-26 63-26t63 26z m450 574q56-56 56-132 0-78-56-134l-158-158q-74-72-150-72-62 0-112 50-14 14-14 34t14 36q14 14 35 14t35-14q50-48 122 24l158 156q28 28 28 64 0 38-28 62-24 26-56 31t-60-21l-50-50q-16-14-36-14t-34 14q-34 34 0 70l50 50q54 54 127 51t129-61z" horiz-adv-x="800" />

<glyph glyph-name="male" unicode="&#xe676;" d="M0 209q0 149 105 254t254 106q106 0 196-57l199 199-152 0 0 139 390 0 0-391-140 0 0 151-196-197q63-92 63-204 0-148-106-254t-255-105-253 105-105 254z m145 1q0-88 62-152t151-63 153 63 63 152-63 152-153 62-151-62-62-152z" horiz-adv-x="992" />

<glyph glyph-name="female" unicode="&#xe677;" d="M0 528q0 133 94 227t226 95 228-95 95-227q0-115-75-204t-185-111l0-103 137 0 0-123-137 0 0-137-123 0 0 137-139 0 0 123 139 0 0 103q-112 22-186 111t-74 204z m127 0q0-80 57-137t136-57 137 57 57 137-57 137-137 56-136-56-57-137z" horiz-adv-x="643" />

<glyph glyph-name="pencil" unicode="&#xe678;" d="M795 731c50-46 44-118-4-165l-46-46s35 53-37 123c-64 64-124 37-124 37l49 48c43 45 120 45 162 3z m-89-250l-492-493-210-51-4 4 55 210 493 490c8 2 30 9 60 2l-523-522-15-55 60-60 56 15 25 24 3 56-40 40 479 479c7-7 7-7 15-15 71-70 38-124 38-124z" horiz-adv-x="830" />

<glyph glyph-name="home" unicode="&#xe679;" d="M786 296v-267q0-15-11-26t-25-10h-214v214h-143v-214h-214q-15 0-25 10t-11 26v267q0 1 0 2t0 2l321 264 321-264q1-1 1-4z m124 39l-34-41q-5-5-12-6h-2q-7 0-12 3l-386 322-386-322q-7-4-13-3-7 1-12 6l-35 41q-4 6-3 13t6 12l401 334q18 15 42 15t43-15l136-114v109q0 8 5 13t13 5h107q8 0 13-5t5-13v-227l122-102q5-4 6-12t-4-13z" horiz-adv-x="928.6" />

<glyph glyph-name="loop-alt" unicode="&#xe680;" d="M799 351l112 0 0-56q0-69-48-119t-119-49l-391 0 0-111-223 168 223 167 0-112 391 0q23 0 39 16t16 40l0 56z m-669 56l0-56-112 0 0 56q0 70 49 118t119 49l390 0 0 111 223-166-223-168 0 111-390 0q-24 0-40-16t-16-39z" horiz-adv-x="928" />

<glyph glyph-name="share-1" unicode="&#xe681;" d="M650 200q62 0 106-43t44-107q0-62-44-106t-106-44-106 44-44 106q0 6 1 14t1 12l-260 156q-42-32-92-32-62 0-106 44t-44 106 44 106 106 44q54 0 92-30l260 156q0 4-1 12t-1 12q0 62 44 106t106 44 106-43 44-107q0-62-44-106t-106-44q-52 0-90 32l-262-156q2-8 2-26 0-16-2-24l262-156q36 30 90 30z" horiz-adv-x="800" />

<glyph glyph-name="wechat" unicode="&#xe682;" d="M324 593q0 23-14 37t-37 14q-24 0-42-15t-19-36q0-22 19-36t42-14q23 0 37 13t14 37z m414-283q0 15-14 28t-36 12q-16 0-28-13t-13-27q0-16 13-28t28-13q22 0 36 12t14 29z m-131 283q0 23-14 37t-37 14q-24 0-42-15t-18-36q0-22 18-36t42-14q23 0 37 13t14 37z m354-283q0 15-15 28t-36 12q-15 0-27-13t-13-27q0-16 13-28t27-13q22 0 36 12t15 29z m-149 221q-17 3-39 3-94 0-173-43t-125-117-45-160q0-44 13-85-20-2-38-2-15 0-28 1t-31 4-25 4-30 6-28 5l-141-70 40 121q-162 114-162 274 0 94 54 173t148 125 203 45q98 0 185-36t146-102 76-146z m331-313q0-65-38-124t-104-108l31-101-111 60q-84-20-122-20-94 0-173 39t-125 107-46 147 46 148 125 106 173 40q90 0 169-40t127-107 48-147z" horiz-adv-x="1142.9" />

<glyph glyph-name="graduation-cap-1" unicode="&#xe683;" d="M990 383l10-176q2-38-46-71t-131-52-180-20-180 20-131 52-46 71l10 176 320-101q12-3 27-3t27 3z m296 181q0-13-13-17l-625-196q-2-1-5-1t-6 1l-364 115q-24-19-39-63t-19-99q35-20 35-61 0-39-32-60l32-242q1-7-4-13-5-7-14-7h-107q-8 0-13 7-6 6-5 13l33 242q-33 21-33 60 0 41 36 62 7 115 55 184l-186 58q-12 4-12 17t12 18l625 196q3 1 6 1t5-1l625-196q13-5 13-18z" horiz-adv-x="1285.7" />

<glyph glyph-name="money" unicode="&#xe684;" d="M238 378c13 16 35 21 65 24l0-85c-50 5-75 9-75 39 0 7 2 15 10 22z m107-241l0 91c59-5 78-9 78-35 0-30-24-49-78-56z m70 244c30-17 36-24 36-38l8-4 45 90-6 5c-7-5-10-7-14-7s-8 0-13 4c-61 23-90 35-126 35l0 17c0 9 5 15 20 19l0 9-79 0 0-9c14-4 17-11 17-19l0-15c-97-4-153-50-153-122 0-74 40-100 153-110l0-97c-78 8-117 38-117 64l-7 4-41-94 6-4c6 4 9 5 12 5 2 0 7 0 9-2 48-24 94-38 138-40l0-19c0-10-3-16-17-20l0-9 79 0 0 9c-15 4-20 9-20 20l0 19c96 5 159 54 159 126 0 70-53 106-149 115l-10 0 0 88c23-2 46-8 70-20z m41 181c117-50 198-165 198-300 0-181-146-328-326-328-182 0-328 147-328 328 0 135 81 250 198 300l-82 179c0 17 12 25 28 25l366 0c16 0 28-7 28-25z" horiz-adv-x="654" />

<glyph glyph-name="bell" unicode="&#xe685;" d="M0 440q1 22 15 42 15 22 39 34t49 10q2 0 8-1 41-3 75 7 92 30 239 176 54 55 126 74t145 0 126-74 74-126 0-145-74-126q-40-41-71-77t-51-63-33-52-19-41-9-33-2-27 2-21q1-6 1-8 2-25-10-49t-35-40q-20-13-42-14t-46 6q0 0-10 2t-21 6-28 10-38 16-44 24-51 33-56 44-61 57q-28 27-51 54t-41 52-32 46-24 42-18 36-12 31-7 24-5 16-2 9q-7 25-6 46z m98-65q5-30 24-67t52-83 77-88q88-87 170-129t110-14q21 23 2 77t-70 120q-8-11-14-17-33-33-81-33t-80 33q-33 33-33 81t33 81q6 5 17 13-67 52-120 71t-77-2q-15-14-10-43z" horiz-adv-x="904.8" />

<glyph glyph-name="signal-1" unicode="&#xe686;" d="M424 644c-31 0-58 26-58 58s27 57 58 57c32 0 57-26 57-57s-25-58-57-58z m327-744c9-24-2-50-26-59-5-2-10-2-16-2-18 0-35 10-41 29l-14 35-460 0-14-35c-6-19-24-29-41-29-6 0-11 0-16 2-24 9-35 35-27 59l278 714 42 29 17 0 41-29z m-178 212l-44 111-71-71 77-77z m-149 382l-70-181 140 0z m87-226l-170 0 85-84z m-191-41l-44-112 42-40 77 77z m-109-279l170 0-122 121z m215 17l78 78-78 77-77-77z m45-17l165 0-46 119z m165 582l-37 37c26 25 40 61 40 95 0 30-13 63-36 88l35 35c32-36 55-81 55-128 0-44-18-89-57-127z m134-72l-39 39c44 42 67 100 65 161 2 60-21 119-65 162l38 37c56-55 84-129 85-203-1-69-25-140-84-196z m-551 331l36-37c-26-25-40-62-40-94s13-65 36-89l-35-35c-33 34-55 81-55 128 0 43 18 88 58 127z m-135 73l39-40c-44-43-67-100-67-162 0-60 23-117 67-161l-38-39c-56 57-84 130-85 204 1 69 25 140 84 198z" horiz-adv-x="854" />

<glyph glyph-name="emo-unhappy" unicode="&#xe687;" d="M261 800c-60 0-109-65-109-144 0-80 49-145 109-145s110 65 110 145c0 79-49 144-110 144z m477 0c-61 0-110-65-110-144 0-80 49-145 110-145 60 0 110 65 110 145 0 79-50 144-110 144z m-244-599c-165 0-331-62-461-184l-3-3c-6-5-11-10-14-14-21-21-21-55-1-76 21-21 54-21 75-1l12 12 3 3c111 105 254 157 396 155 143-1 285-56 396-165 4-4 8-8 12-12 20-21 54-21 74-1 21 21 21 55 1 77-5 5-9 10-14 14-131 129-299 194-468 195-3 0-6 0-8 0z" horiz-adv-x="999" />

<glyph glyph-name="emo-happy" unicode="&#xe688;" d="M261 800c-60 0-109-65-109-144 0-80 49-145 109-145s110 65 110 145c0 79-49 144-110 144z m477 0c-61 0-110-65-110-144 0-80 49-145 110-145 60 0 110 65 110 145 0 79-50 144-110 144z m208-599c-13 0-27-5-37-16-4-4-8-8-12-12-111-109-253-164-396-165-142-2-285 50-396 155l-3 3-12 12c-21 21-54 20-75-1-20-21-20-55 1-76 3-4 8-8 14-14l3-3c132-124 301-186 469-184 169 1 337 67 468 195 5 5 9 10 14 14 20 22 20 56-1 77-10 10-23 15-37 15z" horiz-adv-x="999" />

<glyph glyph-name="iconfont-biaoshengbang" unicode="&#xe689;" d="M794 777q24 0 46-11t39-30 28-40 10-45l0-606q0-25-11-47t-29-39-40-26-46-10l-670 0q-23 0-45 9t-39 25-27 37-10 47l0 616q0 24 11 46t28 38 42 26 50 10l663 0z m-625-183q-14 0-22-9t-9-21q0-14 9-23t22-8l286 0q13 0 22 8t8 23q0 13-8 21t-22 9l-286 0z m0-183q-14 0-22-9t-9-23q0-12 9-21t22-9l245 0q13 0 22 9t8 21q0 14-8 23t-22 9l-245 0z m225-246q12 0 21 9t9 22-9 21-21 9l-225 0q-14 0-22-9t-9-21 9-22 22-9l225 0z m459 185l-164 186-202-186 123 0q1-32-3-65-3-29-13-63t-29-66-46-54-47-35q-26-17-52-27l236 0q5 8 11 19l13 25q8 16 18 39 12 29 19 68t11 74q3 41 4 85l121 0z" horiz-adv-x="977" />

<glyph glyph-name="th-list" unicode="&#xe690;" d="M286 154v-108q0-22-16-37t-38-16h-178q-23 0-38 16t-16 37v108q0 22 16 38t38 15h178q22 0 38-15t16-38z m0 285v-107q0-22-16-38t-38-15h-178q-23 0-38 15t-16 38v107q0 23 16 38t38 16h178q22 0 38-16t16-38z m714-285v-108q0-22-16-37t-38-16h-535q-23 0-38 16t-16 37v108q0 22 16 38t38 15h535q23 0 38-15t16-38z m-714 571v-107q0-22-16-38t-38-16h-178q-23 0-38 16t-16 38v107q0 22 16 38t38 16h178q22 0 38-16t16-38z m714-286v-107q0-22-16-38t-38-15h-535q-23 0-38 15t-16 38v107q0 23 16 38t38 16h535q23 0 38-16t16-38z m0 286v-107q0-22-16-38t-38-16h-535q-23 0-38 16t-16 38v107q0 22 16 38t38 16h535q23 0 38-16t16-38z" horiz-adv-x="1000" />

<glyph glyph-name="iconfont-mulu" unicode="&#xe691;" d="M834 779q33 0 56-24t23-56l0-82q0-34-23-57t-56-23l-691 0q-34 0-57 23t-23 57l0 82q0 33 23 56t57 24l691 0z m0-305q33 0 56-23t23-57l0-83q0-33-23-57t-56-23l-691 0q-34 0-57 23t-23 57l0 83q0 33 23 57t57 23l691 0z m0-304q33 0 56-23t23-57l0-88q0-33-23-56t-56-23l-691 0q-34 0-57 23t-23 56l0 88q0 33 23 57t57 23l691 0z" horiz-adv-x="977" />

<glyph glyph-name="macstore" unicode="&#xe692;" d="M0 237l0 151q0 10 7 18t18 7l265 0-115-201-150 0q-11 0-18 7t-7 18z m122-244l66-38z m10 44q-3 10 2 19l304 528q5 9 15 12t19-3l65-37q10-5 13-15t-3-20l-303-528q-5-9-15-11t-20 2l-65 38q-9 4-12 15z m308 175l115 201 67 0 94-201-276 0z m78 625q1 9 6 12 10 5 36-31t71-116 62-105q28-44 76-130t91-169 43-84q11-19-2-36t-31-24q-18-8-24-9t-30 7q-30 15-190 393-5 11-13 31t-17 38-19 42-18 44-17 42-14 39-8 32-2 24z m328-424l235 0q10 0 18-7t7-18l0-151q0-10-7-17t-18-8l-133 0q-4 16-8 23l-24 46q-64 121-70 132z m13-316q3 10 13 15l37 19q10 5 21 2t16-14l31-60q12-24-10-39l-27-16q-10-5-21-2t-17 12l-40 62q-6 10-3 21z m77-145q0 16 4 21t12 14l24 9q61 12 72-70 3-32-1-76-4 12-44 30t-55 38q-13 18-12 34z" horiz-adv-x="1106" />

<glyph glyph-name="iconfont-tishi" unicode="&#xe693;" d="M627-24l0-11q0-5 1-11t0-12q-1-19-10-41t-37-32q-10-4-28-12t-52-7q-30 0-49 7t-30 9q-14 3-23 12t-13 22-5 24-1 22l0 31z m216 650q25-61 29-115t-6-98-28-81-40-63-38-44-25-23q-10-9-18-14t-15-7-12-7-12-13q-13-19-20-37t-12-35q-5-14-11-22t-13-16q-8-8-16-13l-218 0q-8 5-15 13-7 7-14 18t-12 27q-10 29-24 47t-37 34q-16 12-37 32t-40 46-38 60-28 73-13 85 9 95q16 79 58 134t94 86 106 48 100 14q47 0 97-13t98-40 87-70 64-101z m-101-203q43 174-111 265-26 16-60 25t-70 9-71-9-63-28q-68-46-91-101t-22-115q1-34 11-61t25-49 30-38 27-29q25-26 44-45t30-49q11-29 34-36t43-6q26 0 50 11t33 36q5 13 21 33t46 56q16 19 30 33t27 28 22 30 15 40z" horiz-adv-x="1000" />

<glyph glyph-name="mobile" unicode="&#xe694;" d="M480 840q42 0 71-29t29-71l0-780q0-40-29-70t-71-30l-380 0q-40 0-70 30t-30 70l0 780q0 42 30 71t70 29l380 0z m-190-940q30 0 50 15t20 35q0 22-20 36t-50 14q-28 0-49-15t-21-35 21-35 49-15z m210 150l0 660-420 0 0-660 420 0z" horiz-adv-x="580" />

<glyph glyph-name="iconfont-bianjiwenjian" unicode="&#xe695;" d="M729 664q-11 0-19 8t-12 17-8 21-2 17l0 123 2 0q9 0 17-2t19-9 28-21 41-36q27-24 43-40t25-28 10-20 2-14l0-16-146 0z m310-470q3-8 4-20t-10-23q-5-5-9-9t-7-8q-4-4-7-6l-85 84q6 5 14 12t12 11q12 11 26 10t23-7q10-5 22-17t17-27z m-352-92q22 0 37 12l-194-202-275 0q-19 0-42 11t-42 29-32 41-13 49l0 679q0 21 9 44t26 42 38 31 44 12l382 0 0-125q0-19 6-41t18-40 33-31 48-12l145 0 0-331-136-142q11 16 11 35 0 26-19 45t-44 18l-375 0q-26 0-43-18t-18-45 18-43 43-18l375 0z m-375 374q-26 0-43-19t-18-44 18-44 43-18l375 0q26 0 44 18t19 44-19 44-44 19l-375 0z m377-500l13 13 25 25q15 15 33 33t35 37q43 42 97 95l84-83-97-97-36-36-33-33q-14-14-23-24t-11-11q-4-4-10-9t-12-7-19-8-25-8-25-7-18-4q-12-2-16 3t-2 17q1 6 4 18t7 24 7 24 6 15q6 13 16 23z" horiz-adv-x="1044" />

<glyph glyph-name="iconfont-shejishi" unicode="&#xe696;" d="M349 218q0-19-16-31t-42-23-54-25-53-38l-19 0q-41 0-71 9t-52 22-31 32-11 35q0 21 22 34t49 24 48 23 22 31-12 35-26 37-27 48-12 70q0 31 7 60t19 51 33 35 47 13q36 0 60-12-6-36-6-75 0-63 11-107t26-76q-15-20-28-37t-13-42q0-13 14-22t34-18 41-18 39-19q1-5 1-16z m496 93q0-11 12-20t28-17 38-15 37-16 29-19 11-25q0-22-15-39t-40-28-57-18-67-7q-28 19-60 30t-60 19-49 19-25 30q4 19 26 31t48 23 46 22 20 30q0 21-16 39t-33 40q16 35 27 83t10 113q0 14-1 28t-4 28q26 18 47 18 47 0 75-15t43-39 19-49 4-49q0-45-14-72t-32-48-32-37-15-40z m-281-106q0-21 19-37t46-30 61-28 61-28 47-34 18-44q0-17-28-33t-74-28-106-21-123-7q-72 0-127 7t-93 20-57 29-20 32q0 25 19 44t46 33 61 28 60 26 47 31 18 39-9 43-24 41-32 44-31 54-24 69-10 90q0 111 42 177t128 65q73 0 115-22t64-56 27-76 5-82q0-54-9-93t-24-68-30-51-30-43-23-42-10-49z" horiz-adv-x="1000" />

<glyph glyph-name="iconfont-tianjiashangjia" unicode="&#xe697;" d="M541 223q-26-41-37-87t-6-93 25-90 56-79l3-4 4-3q-54-8-106-13t-90-4q-43 0-103 6t-116 15-99 19-52 16q-11 8-16 49t4 104q6 37 30 56t56 30 66 20 61 26q21 13 32 25t16 23 4 25-1 28q-2 23-16 36t-29 27q-8 6-14 19t-12 25q-5 15-9 31-7 1-14 6-6 5-12 14t-12 26q-6 17-4 31t5 23q4 11 12 21 0 38 4 75 4 32 14 68t30 65q19 27 43 45t47 27 49 13 46 4q29 0 56-6t49-18 40-24 29-28q25-32 37-70t17-73q5-40 4-79 7-4 11-12 4-7 7-18t1-27q-3-21-9-33t-15-19q-9-8-18-11-5-17-10-31-5-12-11-24t-14-19q-9-8-16-14t-14-12-10-15-7-20q-3-17-1-36t15-36z m-73-255q0 6-3 23t-7 36-8 37-6 26q13 12 23 31 2 6-2 14t-13 15q-9 8-20 17l-50 0q-11-9-19-17-7-8-11-15t-2-13q4-9 9-16t8-14q-2-6-6-22t-8-36-8-37-4-26q0-5 9-14t19-19 22-17 16-7 15 7 21 15 18 18 7 14z m314 324q45 0 84-17t70-46 47-70 17-86q0-45-17-84t-47-70-70-47-84-17q-46 0-86 17t-70 47-47 70-17 84q0 46 17 86t47 70 70 46 86 17z m123-250q14 0 22 9t9 21-9 22-22 9l-93 0 0 94q0 13-9 22t-21 9q-14 0-22-9t-9-22l0-94-94 0q-13 0-22-9t-9-22 9-21 22-9l94 0 0-94q0-14 9-22t22-9q12 0 21 9t9 22l0 94 93 0z" horiz-adv-x="1000" />

<glyph glyph-name="iconfont-zhanghu" unicode="&#xe698;" d="M992 787q61 0 98-31t36-94l0-555q0-27-10-51t-27-42-41-29-50-10l-872 0q-26 0-49 10t-40 27-27 38-10 47l0 567q0 54 33 89t93 34l866 0z m-711-185q-19 0-36-7t-30-19-20-30-8-38 8-37 20-30 30-20 36-8q21 0 39 8t30 20 20 30 7 37q0 41-27 68t-69 26z m157-346q0 19-7 37t-20 30-30 20-37 7l-125 0q-39 0-66-27t-27-67l0-4 0-90 312 0 0 90 0 4z m464-99q20 0 30 10t9 24-11 25-31 10l-298 0q-20 0-30-10t-10-25 10-24 29-10l302 0z m1 129q20 0 29 10t9 24q0 15-8 25t-29 10l-306 0q-20 0-29-10t-9-25q0-14 9-24t28-10l306 0z m1 127q15 0 26 10t11 24-11 23-26 8l-203 0q-15 0-25-8t-11-23 11-24 25-10l203 0z" horiz-adv-x="1127" />

<glyph glyph-name="chat" unicode="&#xe699;" d="M1179 385q0-126-79-233t-215-170-296-62q-122 0-234 39l2-3-357-107q44 59 71 126t31 106l4 38q-106 120-106 266 0 126 79 233t215 169 295 62 296-62 215-169 79-233z m-250 0q0 29-21 50t-51 21q-29 0-50-21t-21-50q0-30 21-51t50-21q30 0 51 21t21 51z m-250 0q0 29-21 50t-51 21q-29 0-50-21t-21-50q0-30 21-51t50-21q30 0 51 21t21 51z m-250 0q0 29-21 50t-51 21q-29 0-50-21t-21-50q0-30 21-51t50-21q30 0 51 21t21 51z" horiz-adv-x="1179" />

<glyph glyph-name="qq" unicode="&#xe700;" d="M151 400q-5 11-5 29 0 11 6 28t14 25q-1 12 4 29t13 24q0 78 51 161t121 117q78 37 181 37 75 0 149-31 27-11 50-26t40-32 30-38 24-41 18-47 14-50 12-55l1-3q31-46 31-83 0-8-5-23t-5-21q0 0 0-2t2-3 1-1q43-64 68-120t24-116q0-24-11-56t-31-32q-5 0-11 4t-10 10-11 14-9 15-7 15-5 9q-1 1-2 1l-3-2q-33-86-74-125 12-11 35-21t38-23 20-37q-1-2-2-9t-4-10q-36-54-169-54-29 0-61 5t-55 11-58 17q-9 3-13 4-8 2-26 3t-22 0q-23-25-71-36t-94-11q-20 0-39 1t-52 5-56 11-42 23-18 35q0 23 6 33t23 28q6 1 22 7t28 6q2 0 8 2 1 1 1 2l-1 2q-27 6-60 58t-41 88l-3 1q-2 0-7-11-10-23-30-41t-43-21h-1q-2 0-3 2t-3 3q-13 31-13 56 0 154 141 260z" horiz-adv-x="1000" />

<glyph glyph-name="thumbs-up-alt" unicode="&#xe701;" d="M143 100q0 15-11 25t-25 11q-15 0-25-11t-11-25q0-15 11-25t25-11q15 0 25 11t11 25z m89 286v-357q0-15-10-25t-26-11h-160q-15 0-25 11t-11 25v357q0 14 11 25t25 10h160q15 0 26-10t10-25z m661 0q0-48-31-83 9-25 9-43 1-42-24-76 9-32 0-66-9-31-31-52 5-63-27-101-36-43-110-44h-72q-37 0-80 9t-68 16-67 22q-69 24-88 25-15 0-26 11t-10 25v357q0 14 10 25t24 11q13 1 42 33t57 67q38 49 56 67 10 10 17 27t10 27 8 34q4 22 7 34t11 29 18 28q11 11 26 11 25 0 46-6t33-15 22-22 14-26 7-27 2-26 1-21q0-21-6-43t-10-33-16-31q-1-4-5-10t-6-13-5-13h155q43 0 75-32t32-75z" horiz-adv-x="928.6" />

<glyph glyph-name="iconfont-ditu" unicode="&#xe702;" d="M235 518q6-23 14-50t17-55 21-55 26-52l0-394-250-62 0 625z m75 34q0 5 0 10t-1 9q0 45 18 84t47 69 70 46 86 17 86-17 70-46 48-69 17-84l0-12q0-6-1-12-6-53-23-101t-45-94-62-86-75-80q-7-7-15-7t-15 7q-41 38-76 80t-62 88-44 96-23 102z m220 111q-20 0-37-7t-29-19-20-30-8-36 8-36 20-29 29-20 37-7 38 7 30 20 20 29 7 36-7 36-20 30-30 19-38 7z m-155-438q29-32 57-58t49-46q26-23 49-41 12 10 27 23 13 11 30 28t39 38l0-319-251 62 0 313z m563 313l0-626-250-62 0 383q6 6 12 13t11 12q20 22 37 53t31 65 24 69 18 64z" horiz-adv-x="1000" />

<glyph glyph-name="angle-up" unicode="&#xe703;" d="M600 189q0-7-6-13l-28-27q-5-6-12-6t-13 6l-220 219-219-219q-5-6-13-6t-13 6l-27 27q-6 6-6 13t6 13l260 260q5 6 12 6t13-6l260-260q6-5 6-13z" horiz-adv-x="642.9" />

<glyph glyph-name="angle-down" unicode="&#xe704;" d="M600 439q0-7-6-13l-260-260q-5-5-13-5t-12 5l-260 260q-6 6-6 13t6 13l27 28q6 6 13 6t13-6l219-219 220 219q5 6 13 6t12-6l28-28q6-5 6-13z" horiz-adv-x="642.9" />

<glyph glyph-name="angle-left" unicode="&#xe705;" d="M350 546q0-7-6-12l-219-220 219-219q6-6 6-13t-6-13l-28-28q-5-5-12-5t-13 5l-260 260q-6 6-6 13t6 13l260 260q5 6 13 6t12-6l28-28q6-5 6-13z" horiz-adv-x="357.1" />

<glyph glyph-name="angle-right" unicode="&#xe706;" d="M332 314q0-7-6-13l-260-260q-5-5-12-5t-13 5l-28 28q-6 6-6 13t6 13l219 219-219 220q-6 5-6 12t6 13l28 28q5 6 13 6t12-6l260-260q6-5 6-13z" horiz-adv-x="357.1" />

<glyph glyph-name="iconfont-xiazai" unicode="&#xe707;" d="M937 30q6-24-2-46t-27-38-44-26-56-9q-189-1-338-1l-340 0q-36 0-63 13t-44 32-22 41 1 41q6 14 12 29 5 13 12 30t15 33l38 92 114 0-43-126 644 0-43 126 109 0q21-51 38-92 7-18 14-35t13-30 9-23 3-11z m-503 185q-19 22-43 55t-51 68-51 69-46 59q-23 27-18 45t34 17q16-1 43 1t45 1q20 0 25 12t5 32q0 22 0 49t-1 54 0 55-1 50q0 10 2 21t7 20 16 15 28 6q21 0 39 1t40 0q33 0 45-15t12-50l0-39q0-23 1-49t0-52l0-47q0-29 6-46t27-17q15 0 37-1t37-1q27 0 35-14t-11-38q-19-24-44-58t-51-70-52-71-46-60q-18-23-34-23t-35 21z" horiz-adv-x="1001" />

<glyph glyph-name="calendar" unicode="&#xe708;" d="M0-31v761q0 37 26 62t62 26h762q36 0 61-26t26-62v-761q0-36-26-62t-61-26h-762q-36 0-62 26t-26 62z m88 0h762v527h-762v-527z m60 59v175h176v-175h-176z m0 234v176h176v-176h-176z m235-234v175h175v-175h-175z m0 234v176h175v-176h-175z m234-234v175h176v-175h-176z m0 234v176h176v-176h-176z" horiz-adv-x="937.5" />

<glyph glyph-name="comment-1" unicode="&#xe709;" d="M781 662l-625 0q-21 0-37-15t-15-36l0-365q0-21 15-37t37-16l157 0 0-8 8 8 460 0q22 0 37 16t16 37l0 365q0 21-16 36t-37 15z m0 105q65 0 111-46t46-110l0-365q0-65-46-111t-111-45l-416 0-156-157 0 157-53 0q-65 0-110 45t-46 111l0 365q0 65 46 110t110 46l625 0z" horiz-adv-x="938" />

<glyph glyph-name="resize-small" unicode="&#xe800;" d="M704 33l-128-130 0 336 335 0-127-128 127-129-79-79z m-686 429l128 129-127 126 79 79 126-126 129 127 0-335-335 0z m0-480l128 129-128 128 335 0 0-336-129 130-127-130z m558 480l0 335 128-127 128 126 78-79-126-126 127-129-335 0z" horiz-adv-x="928" />

<glyph glyph-name="resize-full" unicode="&#xe801;" d="M784 111l127 128 0-336-335 0 128 130-128 127 79 79z m-431 686l-129-127 128-127-80-80-126 128-128-129 0 335 335 0z m0-637l-129-127 129-130-335 0 0 336 128-128 128 128z m558 637l0-335-127 129-128-128-79 80 127 127-128 127 335 0z" horiz-adv-x="928" />

<glyph glyph-name="iconfont-xiaofeizhebaozhang" unicode="&#xe802;" d="M958 766l0-510q0-46-23-91t-60-88-84-81-97-68-95-49-82-27l-11-2-10 2q-35 7-83 27t-98 49-100 68-87 81-62 88-24 91l0 510 37 5 422 79 430-79z m-457-28l-5 1-329-56 0-292 334 0 0 347z m332-347l-332 0 0-416q32 7 70 22t74 36 70 46 60 54 42 60 16 63l0 135z" horiz-adv-x="1000" />

<glyph glyph-name="iconfont-fasong" unicode="&#xe803;" d="M0-150l104 463 575 36-575 39-104 462 1000-500z" horiz-adv-x="1000" />

<glyph glyph-name="iconfont-yanjing" unicode="&#xe804;" d="M503 179c-102 0-185 77-185 172 0 95 83 172 185 172 102 0 185-77 185-172 0-95-83-172-185-172l0 0z m490 164c-1-1 0-3-1-4 0-1-1-1-1-1 0-1 0-2 0-3-90-191-285-299-491-299-206 0-401 108-491 299 0 1 0 2 0 3 0 0-1 1-1 1-1 2 0 3-1 5 0 2-1 5-1 7 0 3 1 5 1 8 1 1 0 3 1 4 0 1 1 1 1 2 0 1 0 2 0 2 90 191 287 301 493 301 206 0 399-110 489-301 0-1 0-2 0-2 0-1 1-1 1-2 1-1 0-3 1-4 0-3 1-5 1-8 0-3-1-5-1-8l0 0z m-491 268c-175 0-349-88-433-260 85-172 256-258 431-258 175 0 347 86 431 258-84 172-254 260-429 260l0 0z" horiz-adv-x="1000" />

<glyph glyph-name="iconfont-zan" unicode="&#xe805;" d="M855 500c-34 9-114 9-230 12 5 25 7 48 7 89 0 97-71 183-134 183-44 0-81-36-81-81-1-55-18-149-109-197-7-3-26-13-28-14l1-1c-14 12-34 22-54 22l-82 0c-44 0-81-37-81-82l0-434c0-45 37-81 81-81l82 0c32 0 59 19 72 47 0 0 1-1 1-1 2 0 4-1 7-1 0 0 1 0 1-1 16-3 46-11 110-25 14-4 87-19 162-19l148 0c45 0 78 17 97 52 1 1 7 13 12 29 4 13 5 30 1 48 29 20 38 50 44 70 10 32 7 57 0 74 17 16 31 39 37 75 3 22-1 45-11 64 15 18 22 39 23 59l0 6c1 4 1 6 1 14 0 34-24 78-77 93l0 0z m-601-503c0-15-12-27-27-27l-82 0c-15 0-27 12-27 27l0 434c0 15 12 27 27 27l82 0c15 0 27-12 27-27l0-434 0 0z m623 393c-1-14-6-40-54-40l-54 0c-7 0-13-6-13-14 0-7 6-13 13-13l53 0c40 0 46-34 43-50-3-20-13-59-59-59l-64 0c-8 0-14-6-14-13 0-8 6-14 14-14l53 0c46 0 42-35 36-56-9-27-14-52-72-52l-44 0c-8 0-14-6-14-14 0-7 6-13 14-13l42 0c30 0 31-29 28-39-3-11-7-19-7-19-9-15-22-24-50-24l-148 0c-74 0-148 17-150 17-113 26-119 29-126 31 0 0-23 3-23 23l0 375c0 13 8 24 21 28 2 1 4 2 6 2 124 52 162 164 163 256 0 13 10 28 27 28 29 0 79-58 79-129 0-65-2-76-25-143 271 0 269-4 293-10 30-8 33-33 33-41 0-10-1-8-1-17l0 0z m-691-311c-22 0-41-19-41-41s19-41 41-41c23 0 41 19 41 41s-18 41-41 41l0 0z m0-55c-7 0-13 7-13 14 0 7 6 14 13 14 8 0 14-7 14-14 0-7-6-14-14-14l0 0z m0 0" horiz-adv-x="1000" />

<glyph glyph-name="iconfont-androidalarmclock" unicode="&#xe806;" d="M918 606l-192 160-55-64 193-160 54 64z m-591 98l-55 64-190-162 54-64 191 162z m194-191l-63 0 0-249 199-118 31 52-167 97 0 218z m-21 166c-209 0-376-168-376-374 0-205 167-373 376-373 207 0 376 168 376 373 0 206-169 374-376 374z m0-664c-161 0-293 131-293 290 0 160 132 291 293 291 161 0 293-131 293-291 0-161-132-290-293-290z" horiz-adv-x="1000" />

<glyph glyph-name="iconfont-wujiaoxing74" unicode="&#xe807;" d="M761-114c-11 0-23 3-33 8l-228 112-230-112c-22-12-53-10-75 6-21 15-32 42-28 69l47 244-180 167c-20 19-27 48-19 74 8 25 30 44 57 48l251 46 113 226c12 25 37 40 64 40 27 0 52-15 64-40l112-226 252-44c27-4 49-23 57-49 8-25 1-54-18-73l-181-169 45-243c5-27-6-55-28-71-12-8-27-13-42-13z m-261 176l251-123c8-5 16-4 23 1 6 5 10 13 8 21l-51 270 202 187c5 6 7 14 4 22-2 8-9 13-17 14l-277 49-124 249c-7 15-31 15-38 0l-124-249-276-50c-9-1-16-7-18-15-3-8-1-16 5-22l201-185-53-271c-1-7 2-15 9-20 7-5 15-6 22-2l253 124z" horiz-adv-x="1000" />

<glyph glyph-name="iconfont-appreciatefill" unicode="&#xe808;" d="M844 475h-185c14 31 29 112 20 185-7 59-41 104-91 121-38 13-77 7-98-15-25-26-37-74-50-125-8-34-16-69-27-86-30-52-94-80-107-80h-87c-17 0-31-14-31-31v-438c0-17 14-31 31-31h84c26 0 124-63 236-63h211c35 0 95 14 117 51 23 38 70 380 70 417 0 53-51 95-93 95z m-750 0c-17 0-31-14-31-31v-438c0-17 14-31 31-31s31 14 31 31v438c0 17-14 31-31 31z" horiz-adv-x="1000" />

<glyph glyph-name="iconfont-appreciate" unicode="&#xe809;" d="M94-25c-17 0-31 14-31 31l0 438c0 17 14 31 31 31s31-14 31-31l0-438c0-17-14-31-31-31z m750 500l-185 0c14 31 29 112 20 186-7 58-41 103-91 120-38 13-77 7-98-15-25-26-37-74-49-125-9-34-17-69-28-86-30-52-94-76-106-80l-88 0c-17 0-31-14-31-31l0-438c0-17 14-31 31-31l84 0c26-14 124-63 236-63l211 0c35 0 95 14 117 51 23 38 70 380 70 418 0 52-51 94-93 94z m-30-480c-5-8-36-20-64-20l-211 0c-111 0-210 63-211 63 0 0 0 0 0 0-4 0-10 0-15 0l-63 0 0 375 63 0c2 0 4 0 7 1 0 0 1 0 1 0 0 0 1 0 2 1 1 0 2 0 2 0 19 7 100 37 142 108 15 26 25 63 34 103 9 37 20 83 34 96 3 3 17 6 35-1 15-6 41-23 47-68 12-100-31-196-31-197-5-9-4-20 2-29 6-9 16-14 26-14l230 0c9 0 31-15 31-32 0-42-48-356-61-386z" horiz-adv-x="1000" />

<glyph glyph-name="iconfont-mark" unicode="&#xe80a;" d="M500-56c-10 0-20 5-25 13l-64 89c-203 35-348 188-348 367 0 206 196 375 437 375s438-169 438-375c0-179-146-332-349-367l-64-89c-5-8-15-13-25-13z m0 781c-207 0-375-140-375-312 0-152 130-281 309-308 8-1 16-6 21-12l45-64 46 64c4 6 12 11 20 12 179 27 309 156 309 308 0 172-168 312-375 312z m-219-375c-34 0-62 28-62 63s28 62 62 62 63-28 63-62-28-63-63-63z m0 63c0 0 0 0 0 0l0-32 0 32z m438-63c-35 0-63 28-63 63s28 62 63 62 62-28 62-62-28-63-62-63z m0 63c0 0 0 0 0 0l0-32 0 32z m-219-63c-34 0-62 28-62 63s28 62 62 62c35 0 63-28 63-62s-28-63-63-63z m0 63c0 0 0 0 0 0l0-32 0 32z" horiz-adv-x="1000" />

<glyph glyph-name="iconfont-markfill" unicode="&#xe80b;" d="M500 788c-241 0-437-169-437-375 0-179 145-332 348-367l64-89c5-8 15-13 25-13s20 5 25 13l64 89c203 35 349 188 349 367 0 206-197 375-438 375z m-219-438c-34 0-62 28-62 63s28 62 62 62 63-28 63-62-28-63-63-63z m219 0c-34 0-62 28-62 63s28 62 62 62 63-28 63-62-28-63-63-63z m219 0c-35 0-63 28-63 63s28 62 63 62 62-28 62-62-28-63-62-63z" horiz-adv-x="1000" />

<glyph glyph-name="iconfont-attention" unicode="&#xe80c;" d="M969 350c0 6-1 10-1 11-1 3-2 8-2 10-1 1-1 2-1 2-1 2-1 3-2 5-86 189-272 316-463 316-190 0-377-127-463-315-1-2-1-4-2-6 0 0 0-1 0-2-2-4-2-8-2-7-1-4-2-11-2-11 0-2 0-4 0-6 0 0 1-6 2-8 0-2 0-4 1-7l0 0c0-2 1-4 2-6 0-1 0-2 1-3 87-190 273-317 463-317 191 0 377 127 462 314 2 3 2 5 3 7 0 1 0 1 1 2 1 4 1 8 1 8 0 0 0 0 0 0 1 3 2 8 2 13z m-63-2c0-1 0-1 0-1-1 0-1-1-1-1-77-166-239-277-405-277-165 0-327 111-405 277 0 1 0 1-1 2 0 0 0 1 0 1 0 0 0 1 0 1l0 1c0 0 0 1 0 2 1 0 1 1 1 1 77 166 239 277 405 277 166 0 328-111 405-277 0 0 0 0 0-1 0 0 0 0 1 0 0-2 0-3 0-3 0-1 0-2 0-2z m-406 158c-86 0-156-70-156-156s70-156 156-156 156 70 156 156-70 156-156 156z m0-250c-52 0-94 42-94 94s42 94 94 94 94-42 94-94-42-94-94-94z" horiz-adv-x="1000" />

<glyph glyph-name="iconfont-arrowleft" unicode="&#xe80d;" d="M872 393l-566 0 260 259-66 66-372-372 372-372 66 66-260 260 566 0 0 93z" horiz-adv-x="1000" />

<glyph glyph-name="appstore" unicode="&#xe80e;" d="M1 351q-1-18-1-36 0-68 20-144 26-97 83-184 89-136 172-137 30 0 78 21t95 21l4 0q46 0 91-20 47-22 76-22 49 1 91 41t85 104q31 48 65 121-50 19-85 57t-48 85q-10 35-9 70l0 24q4 48 34 92t78 70q-38 48-89 75t-103 27q-48 0-105-21t-86-22q-30 0-90 22t-102 21q-58 0-114-33t-96-93q-37-56-44-139z m415 258q-3 15-3 30 0 65 53 129 27 33 70 56t82 26q2-15 2-30 0-69-50-132-28-36-70-58-41-22-80-21l-4 0z" horiz-adv-x="860" />

<glyph glyph-name="uniE60F-1" unicode="&#xe80f;" d="M500-232q-30 0-52 21l-426 427q-22 22-22 53t22 52l156 156q16 17 36 6t17-33q-1-7-2-13t0-10q0-52 36-89t88-37q50 0 84 37t34 89-34 88-84 36q-10 0-23-3-11-2-19 3t-14 14q-3 6-3 13t1 13 7 10l146 146q21 21 53 21t52-20l106-108q17 53 62 87t102 33q34 0 67-13t55-38 36-55 14-66q0-19-4-37t-12-34-18-31-24-27-29-20-33-15l104-103q14-14 19-33t0-39-19-33l-426-427q-2-2-5-4t-5-3l-6-4q-3-2-6-3t-6-3-5-2-7-1-6-1-7 0z m-329 614l-106-105q-7-9 1-17l426-427q8-7 17 1l426 426q8 8 0 17l-151 150q-7 7-8 17t2 18q10 21 33 18l4-1h1 7q45 0 77 32t33 77-33 77-77 33-77-33-32-77v-3q0-1 1-4v-6q1-10-4-19t-14-13-18-2-17 8l-153 154q-9 8-17 0l-94-95q40-10 70-36t48-64 17-81q0-78-52-133t-128-54q-33 0-63 10t-54 30-40 46-25 56z" horiz-adv-x="1001" />

<glyph glyph-name="uniE603" unicode="&#xe810;" d="M500 706q-48 0-93-15t-82-42-63-62-43-79-15-91q0-73 29-159t66-151 85-132 69-91 35-40l12-14 12 14q91 100 169 231 115 195 115 342 0 120-87 204t-209 85z m0-828q-16 18-32 38t-43 57-51 74-51 86-45 93-30 96-12 95q0 52 21 100t56 82 85 55 102 20q71 0 132-34t97-94 35-129q0-61-23-134t-54-131-72-120-66-94-49-60z m3 646q-46 0-79-32t-33-78 33-78 79-32 80 32 33 78-33 78-80 32z m0-190q-33 0-57 24t-24 56 24 56 57 23 58-23 24-56-24-56-58-24z" horiz-adv-x="1000" />

<glyph glyph-name="uniE604" unicode="&#xe811;" d="M557 416h235v-41h-235v41z m0 0z m71-300l-2 2h-463q-9 0-16 4t-12 12-4 17v430q0 3 1 8t3 8 5 7 7 6 7 4 9 1h659q7 0 13-3t10-7 7-10 3-13v-257l2-2q17-11 29-26l8-9v302q0 18-9 33t-23 22-32 9h-677q-17 0-32-9t-23-22-8-33v-450q0-9 2-17t6-15 10-13 13-10 15-6 17-2h501l-6 7q-2 4-5 7t-4 6-4 6-4 6-3 7z m0 0z m-71 211h69v-41h-69v41z m0 0z m0 177h235v-41h-235v41z m0 0z m215-184q-23 0-44-7t-38-19-28-29-19-37-7-43q0-55 40-95t96-40q56 0 95 39t39 96-39 96-95 39z m-3-217q-11-11-27 0l-56 58q-5 4-5 12t4 12 12 5 15-5l45-45 88 86q5 5 12 5t14-5q5-5 5-12t-5-12z m0 0z m-418 193q-10 0-19 2t-18 5-16 7-14 11-12 12-11 15-8 16-4 18-2 19q0 28 14 53t37 38 53 13q42 0 72-30t30-74-30-74-72-31z m0 175q-30 0-50-20t-20-50 20-50 50-20q13 0 26 5t22 16 15 22 5 27q0 19-9 35t-25 26-34 9z m0 0z m136-224q-8 0-14 8l-56 93q-4 7-2 14t8 11q2 0 4 1t4 0 5 0 4-1 3-3 3-3l57-94q2-4 2-8t-2-9-6-7-10-2z m0 0z m0 0l-4 1-56 14q-7 1-10 7t-2 14q1 5 4 7t8 5 9 0l56-14q7-2 10-8t3-13q-4-13-18-13z m0 0z m-71-34q-2 0-5 1-7 2-10 9t-1 13l15 48q2 6 8 10t14 1q4-2 7-5t4-8 0-9l-15-48q-4-12-17-12z m0 0z m0 0q-4 0-8 3t-7 6l-45 80q-2 4-2 9t2 9 6 6q6 4 13 2t11-8l46-81q3-6 1-13t-8-11q-2-1-4-1t-5-1z m0 0z m-203 34q-5 0-9 2-7 4-8 11t2 13l56 94q3 4 7 6t8 1 8-1 6-5 3-6 0-7-3-7l-55-93q-5-8-15-8z m0 0z m0 0q-14 0-17 13-2 7 2 13t10 8l57 14h5q3 0 5-1t5-2 4-4 1-5q2-7-1-14t-11-7l-56-14q-2-1-4-1z m0 0z m71-34q-12 0-16 12l-15 48q-3 7 0 13t11 9 13-1 8-10l16-48q2-7-2-13t-10-9q-3-1-5-1z m0 0z m0 0q-3 0-5 1t-4 1q-5 4-7 11t1 13l46 81q3 6 10 8t13-2 9-11-2-13l-46-80q-5-9-15-9z m0 0z" horiz-adv-x="1000" />

<glyph glyph-name="uniE60D" unicode="&#xe812;" d="M650 360l-232 232-28-29 203-203-203-204 28-30 204 205z" horiz-adv-x="1000" />

<glyph glyph-name="uniE618" unicode="&#xe813;" d="M513 763q15 0 22-13l101-212q9-20 30-23l232-35q4-1 8-3t7-5 4-8q4-12-5-21l-171-173q-14-15-10-36l39-239q3-13-9-21-7-5-15-5h-3-3l-4 2q-1 0-2 1l-202 110q-9 5-19 5t-19-5l-202-110q-6-3-13-3-7 0-13 4-12 9-10 22l40 239q3 21-12 36l-170 173q-9 9-5 21 4 14 19 16l232 35q21 3 31 23l100 212q3 6 9 10t13 3z m0 41q-19 0-34-10t-24-26l-101-213-232-34q-12-2-22-8t-18-15-12-20q-11-37 16-64l170-173-40-239q-6-40 26-62 9-6 18-9t19-3q17 0 32 8l202 110 202-110q16-8 31-8 21 0 37 12 33 22 27 62l-39 239 169 173q28 27 15 64-3 8-8 15t-11 13-15 10-17 5l-232 34-101 213q-7 17-24 26t-34 10v0 0z m0 0z" horiz-adv-x="1000" />

<glyph glyph-name="uniE61C" unicode="&#xe814;" d="M724 211q-21-79-76-130t-125-50q-87 0-148 74t-62 181h419 209q0 86-33 163t-90 134-134 89-163 34q-85 0-164-34t-134-90-90-134-33-163q0-115 56-212t154-153 211-56q102 0 191 45t147 125 77 177h-212z m-201 330q46 0 88-23t71-64 42-93h-402q20 79 75 130t126 50z m-283-699q-77 52-104 152t-1 220 103 234q58 85 132 146t150 91 149 27 133-42q59-40 89-110t28-159q10 105-21 190t-99 131q-61 42-141 44t-162-32-163-102-143-161q-84-124-115-256t-3-240 110-163q57-39 132-44t152 25 154 86q-100-66-201-77t-179 40z" horiz-adv-x="1000" />

<glyph glyph-name="uniE620" unicode="&#xe815;" d="M696 280q-6 2-9 3t-5 6 2 10q19 51 0 79-20 27-67 27t-107-26v-1q-21-7-20 4 0 3 1 6 20 64-9 92-32 32-107 3t-149-104q-117-117-117-220 0-48 29-88t74-67 105-41 121-14q76 0 144 21t112 53 71 72 26 77q0 41-28 68t-67 40z m-258-285q-64-5-120 10t-91 48-38 74q-7 64 57 116t161 62 170-29 80-102-58-116-161-63z m399 523q-37 42-90 59t-106 4q-8-1-14-7t-8-13-2-15q3-12 13-19t23-4q26 5 50 2t49-15 41-33q27-30 35-69t-5-76q-2-5-1-11t4-11 7-10 10-6q12-4 23 2t15 18q11 35 10 70t-15 71-39 63z m-78-72q-19 20-45 29t-51 2q-11-2-16-11t-4-19q2-7 6-12t11-8 14-1q27 6 46-15t11-48q-3-11 1-20t16-13 19 1 12 16q9 25 4 51t-24 48z m-309-206q-31 7-62 1t-56-25-39-46q-11-20-11-42t8-40 25-33 39-22q48-16 98 5t69 66q19 44-1 83t-70 53z m-47-143q-5-10-16-16t-21-7-22 4q-15 6-19 22t6 29 26 21 32 0q15-7 20-22t-6-31z m41 54q-7-15-21-9-6 3-8 8t2 12q8 13 22 8 5-3 7-8t-2-11z m0 0z" horiz-adv-x="1000" />

<glyph glyph-name="uniE624" unicode="&#xe816;" d="M865 565h-730q-30 0-52-22t-21-51v-448q0-30 21-51t52-22h730q15 0 29 6t23 16 16 23 6 28v448q0 30-22 51t-52 22z m-17-53l-291-258q-10-7-18-14t-16-11-12-6-11-3q-9 0-23 9t-34 25l-291 258h696z m-732-451v404l228-200z m38-37l229 202 37-33q33-28 80-28 23 0 44 7t36 21l37 33 229-202h-692z m730 37l-228 204 228 200v-404z m0 0z" horiz-adv-x="1000" />

<glyph glyph-name="uniE626" unicode="&#xe817;" d="M528 548q-82 0-151-40t-108-109-40-151 40-150 108-109 151-40 151 40 109 109 40 150q0 125-88 212t-212 88z m0-561q-108 0-185 76t-76 185 76 185 185 76 185-76 76-185-76-185-185-76z m145 269h-134v159q0 9-6 15t-13 6-14-6-6-15v-178-1q0-8 6-14t14-6h153q4 0 8 2t6 5 4 5 1 8q0 9-5 14t-14 6z" horiz-adv-x="1000" />

<glyph glyph-name="uniE627" unicode="&#xe818;" d="M750 153q-51 0-93-28t-63-73l-283 131q35 47 35 105 0 11-2 22t-4 22-7 21-11 20-12 19l279 140q19-49 63-79t98-31q71 0 122 51t51 122-51 122-122 51-122-51-51-122v-5q0-3 1-6t0-4v-5l1-5-297-150q-49 40-109 40-71 0-122-50t-51-123 51-122 122-51q60 0 109 40l299-138q-4-20-4-36 0-72 51-123t122-51 122 51 51 122-51 123-122 51z m0 577q36 0 67-18t50-49 18-68-18-68-50-49-67-18-67 18-50 49-18 68q0 56 40 95t95 40z m-577-577q-56 0-95 39t-40 96 40 95 95 39q18 0 36-5t32-13 27-22 21-27 14-32 5-35q0-56-40-96t-95-39z m577-308q-56 0-95 40t-40 95q0 27 11 52t29 43 43 28 52 11q56 0 95-39t40-95q0-37-18-68t-50-49-67-18z" horiz-adv-x="1000" />

<glyph glyph-name="uniE62A" unicode="&#xe819;" d="M882 321v176q0 6-2 16-4 14-13 23t-23 18q-8 5-17 9t-18 7-18 6-18 5q-38 9-83 14-31 4-65 5-49 2-102-4-1 0-6 0t-7-1-7 0-6-1-7-1-7-1q-8-1-16-2t-16-4-16-4q-60-14-91-37-5-4-9-7t-7-9-5-9-4-10-1-12v-125q-12 0-20-2-27-4-50-9-59-15-90-38-26-19-26-47v-70-48-47-71q1-17 9-29 9-15 29-26 27-18 73-30 39-9 84-14l22-2q10-1 22-2t22 0q47-2 95 3 3 0 13 1t15 2 12 2q40 6 66 12 46 14 71 32 30 20 31 54 5 1 10 2t8 0q41 7 65 14 46 14 73 31 31 22 30 58v172z m-527 183q1 8 13 16 6 4 13 7t14 7 13 5 15 5q3 1 7 2t7 2 7 2 8 2 8 1 7 2l7 1 7 1q2 1 8 2t7 1q6 1 42 4 17 1 19 1 11 1 55 1 17 0 34-1t36-3q31-3 58-8t53-15q14-5 25-11t20-13q15-12 2-24-9-8-19-14t-24-11q-19-7-38-11t-40-9q-20-3-47-5-50-5-87-4-18 1-36 2t-35 3q-23 3-44 6t-40 9q-21 6-36 12t-27 16q-1 1-3 2l-6 4q-2 2-3 6t0 7z m-186-221q1 7 13 15t25 13 29 12l8 2q4 1 8 2t7 2 7 1 7 1 7 2 8 1l7 2 8 1q5 1 8 1 4 1 42 4 15 2 18 1 6 1 14 2t13 0h14 14q33 0 69-4 32-4 60-9t52-15q29-10 45-23 15-12 2-25l-6-4-3-4q-3-2-6-3t-5-4l-6-2q-3-2-6-3t-5-2-7-2q-8-3-18-7t-20-6-19-4-21-3q-10-2-22-3t-24-3q-49-4-88-3-34 1-70 4-8 1-14 2t-15 2-14 3l-13 2-14 4q-7 1-14 3-43 12-63 27 0 1-3 3t-3 3-3 2-3 3 0 4 0 5z m490-245q0-7-8-14-19-15-54-27-9-2-17-4t-17-4-16-4-17-2q-17-3-53-7-23-2-47-3t-46 1q-33 1-69 6-17 3-33 6t-32 7-33 9q-24 9-40 22-9 7-9 17v66q1 0 11-5 5-3 10-5t10-4 11-4 10-4 11-3l9-3q6-1 12-2t11-2q9-2 18-4t19-3 18-3q18-2 36-3t37-2q29-1 36-1 13 1 22 1t21 1 21 2q61 6 106 18 35 11 62 27 1-54 0-70z m-10 106q-15-12-40-21-33-12-79-20-18-3-47-5-5-1-12-1t-12-1h-13q-6 0-12 0t-12-1q-22-1-51 1-32 1-67 7-43 6-72 16-41 12-58 29-3 3-5 6t-1 9v66q24-14 50-22 38-11 71-16 25-4 67-8 39-4 90-2 34 1 68 6 21 3 39 6t36 8q37 9 60 22 1 1 3 2 1 1 2 2t3 0 3 1v-45-18q1-12-11-21z m27 176q-2 2-5 3t-4 3-4 3-5 3q-27 17-71 28-38 9-84 14-29 3-63 4-22 1-42 1t-42-3q-1 3-1 7v68q7-5 16-9t16-7 17-7q38-11 71-16 10-1 23-3t21-2 23-2q38-4 90-2 33 1 68 6 43 5 74 13 12 3 21 6t20 7 20 10q1 0 3 2 5 3 8 3v-45-20q1-3 0-6t-3-5-3-4-5-4q-15-12-40-22-33-12-78-19-17-3-41-5z m106-17q36 10 64 27v-71q0-4-3-7t-6-6q-20-16-55-27-15-5-31-9t-35-6q-9-1-20-2v74q0 5-1 11 24 3 45 6t42 10z m42-187q-17-10-37-16t-44-13q-5-1-10-1t-9-2-9-2-10-1-9-1v19 66q25 4 39 6 13 2 25 5t25 7q12 3 24 7t24 11q0 1 13 7v-57q1-13-5-21t-17-14z" horiz-adv-x="1000" />

<glyph glyph-name="uniE639" unicode="&#xe81a;" d="M681 738q-115 52-238 35t-219-98q-96-78-132-200t-2-243q32-117 126-200t216-103q94-16 185 12t158 85 109 144 44 180q-2 125-69 230t-178 158z m-104-762q-132-29-255 38t-175 192q-34 86-27 172t51 164 120 127q56 37 121 53t130 7 124-37 107-75q22-21 39-45t30-51 21-55 14-57 5-59q-2-136-87-240t-218-134z m-99 597v-308q0-9 4-14t12-7 13 0 11 7 5 14v308q0 6-3 10t-6 8-9 3-10 0-9-3-6-8-2-10z m0-417v-47q0-14 11-20t22 0 12 20v47q0 8-5 13t-11 8-13 0-12-8-4-13z" horiz-adv-x="1000" />

<glyph glyph-name="uniE649" unicode="&#xe81b;" d="M228 644q3-3 9-9l15-14q21-24 44-59 15-22 27-43t18-34 9-21q-1-7-12-25-9-14-13-22t-10-25-4-33q0-53 109-160 41-41 77-70 26-20 46-29t35-9q31 0 78 25 28 14 39 15 30-8 102-59 35-25 61-47 10-8 16-14l10-10q-5-38-40-70-39-37-77-37-28 0-59 8t-67 22-73 37q-111 65-218 172-107 106-171 214-32 54-49 100-6 15-9 30t-6 26-2 24q0 8 3 16t9 18q13 20 36 42 10 9 22 18t23 14q4 2 8 4t8 4 6 1z m3 52q-25 0-64-25t-71-66-32-78q0-57 33-132t89-149 128-148 150-129 157-90 146-35q37 0 76 23t65 63 27 82q0 16-50 57t-108 76-80 36q-23 0-61-20t-57-20-73 45-100 99-46 74q0 21 20 54t20 55q0 12-19 49t-46 77-56 71-48 31z" horiz-adv-x="1000" />

<glyph glyph-name="uniE6F2" unicode="&#xe81c;" d="M836 580h-675q-42 0-71-30t-29-71v-454q0-42 29-72t71-30h675q42 0 71 30t30 72v454q0 41-30 71t-71 30z m62-555q0-18-8-32t-23-23-31-9h-675q-25 0-44 19t-18 45v454q0 25 18 44t44 18h675q17 0 31-8t23-23 8-31v-454z m-276 308h140q8 0 13 6t6 14-6 13-13 6h-140q-19 0-19-19 0-8 5-14t14-6z m0-112h140q8 0 13 6t6 14-6 13-13 5h-140q-19 0-19-18 0-5 2-10t7-7 10-3z m207-74h-207q-6 0-10-3t-7-6-2-10q0-7 5-13t14-6h207q8 0 14 6t6 13-6 14-14 5z m-372 35q-17 19-38 31t-44 20l-3 1 3 1q25 13 40 38t15 54q0 43-31 73t-73 31-74-31-31-73q0-29 15-54t40-38l3-1-3-1q-47-14-82-51-35-37-45-87v-4-4q0-2 1-3t2-3q5-6 13-8h1 2q5 0 9 2t6 5 4 8q6 33 26 59t50 41 62 15q51 0 91-33t48-83q3-15 19-15h3q8 2 13 8t3 14q-10 51-45 88z m-132 211q29 0 48-20t19-46-19-47-47-20-48 20-19 47q0 40 35 58 16 8 31 8z" horiz-adv-x="1000" />

<glyph glyph-name="uniE6EE" unicode="&#xe81d;" d="M865 518h-165v70q0 30-20 50t-50 21h-283q-19 0-35-10t-26-25-10-36v-70h-141q-29 0-50-21t-20-50v-519q0-29 20-50t50-20h730q30 0 51 20t21 50v519q0 19-10 35t-26 26-36 10z m24-566q0-9-4-18t-9-15-16-10-18-4h-684q-19 0-33 13t-14 34v236h272v-31q0-12 8-20t20-9h178q12 0 20 9t8 20v31h272v-236z m-476 207v108h174v-108h-174z m476 76h-272v34q0 11-8 19t-20 8h-178q-4 0-8-1t-6-3-6-4-4-5-3-7-1-7v-34h-272v188q0 20 14 33t33 14h165v95q0 13 7 23t17 17 23 7h236q20 0 34-14t13-33v-47-48h189q13 0 23-6t17-17 7-24v-188z" horiz-adv-x="1000" />

<glyph glyph-name="uniE6CC" unicode="&#xe81e;" d="M543 487l-1-19v-3 1 3-2-2q-1-5-3-10-1-8-5-17-1-4-3-9-2-3-2-4l-4-8q-2-3-4-7-2-3-4-7-1-2-3-4-6-7-12-13t-14-13l-2-1h-1q1 0 3 1h1q-1 0-2 0t-2-1q-3-3-6-5-8-5-17-10l-4-2-4-2 1 1-4-2q-5-2-9-3t-9-3q-2 0-4 0t-2-1-3-1q-7-1-8-1 1 0 4 1-3-1-6-1t-7 0-7-1q-4 0-9 1t-9 0q-1 0-4 1l1-1q-3 1-5 2t-6 1q-8 1-16 4-4 2-9 4l1-1q-2 1-5 3-8 3-16 8l-7 5q-5 4-6 4l2-1q-4 2-9 7t-9 9-8 8q-1 1-3 4l1-1q-1 1-2 2t-1 3-2 2q-3 4-5 8t-4 8q-2 3-4 8l1-1q-1 1-2 4-3 9-6 19-2 7-3 17-1 3-1 4v5 6 18q1 1 1 4v-1l2 11q2 8 5 17 1 4 3 8l1 2h-1q0-1-1-3 1 1 1 3t2 2q2 6 5 12t6 10 7 10l-1-1q3 3 3 4l6 5q6 7 14 13l3 3-1-1q3 3 7 6 7 5 16 9l8 4 4 2-4-2 1 1q2 1 3 1 8 2 17 5 2 0 5 1t4 1 5 1 4 1l-1-1 5 1q4 0 11 1 7 0 18-1 6 0 7-1l-4 1q2 0 4 0t3-1 4-1q8-2 17-5 3 0 8-2 1 0 2-1t2 0l1-1q16-7 30-18l1-1 2-2q3-3 8-7l6-7q4-3 7-6l3-3-1 1q3-4 6-9 4-7 9-16 1-4 4-8l-1 1 2-5q4-8 6-19 1-2 2-4t0-5q0-1 1-2t0-2v-1q1-5 1-9v-10q0-7 4-13t10-10 12-4q11 0 19 8t8 19q0 20-4 40t-12 39-21 36-27 30q-31 29-71 42t-80 9q-44-5-81-25-18-10-33-24t-28-32q-24-32-33-75t0-82q8-39 32-73t60-54q35-23 78-28t82 8q60 19 101 74 37 48 37 115 0 4-1 8t-4 7-6 6-7 4-9 1-9-2-9-6-6-8-2-10z m0 0z m-426-480q0 10 1 20t1 18v-1q0 2 1 5 0 2 1 5t0 4q2 9 5 19 4 17 11 35 0 1 2 5l-1-1q1 1 1 2t2 3l1 2q2 4 4 9t4 8q8 16 19 31 2 3 5 7l2 2 1 2-1-2-1-1 2 2q2 2 4 5l4 4 4 6q11 12 25 24l3 3q2 2 4 4t3 2 4 3l-1-1 4 3 7 6 16 9q8 5 16 9 6 4 15 8 2 0 4 2l-1-1 10 4q17 6 36 11 8 2 18 4 3 1 8 1 1 1 3 1v0h-1-1l-2-1 6 1q19 2 38 2 5 0 10-1t9 0q4 0 10-1h2 2 1q11-2 23-5t24-7 24-8h-1q1 0 4-1v-1q2 0 4-1l4-2 17-9q15-8 30-19 3-3 7-6l-1 1 4-3q7-5 14-12 13-12 25-26 2-3 5-7l1-2 2-1q5-7 11-14 10-15 17-33 4-7 8-15v1q0-1 1-4 2-4 4-10 6-17 11-35 0-4 1-9t2-8l1-8v1-4q2-16 2-34 0-7 4-13t9-10 13-3q12 0 20 8t7 18q-1 81-38 155-35 68-100 117-64 47-145 59t-156-12q-75-25-132-81t-82-131q-9-26-13-53t-4-54q0-7 3-13t10-10 13-3q12 0 19 8t8 18v0z m0 0z m485 659h4q2 0 4 0t5-1h4q1 0 4 0h-1l-1 0h-1-1-1q2 0 5 0 2 0 5-1t5-1q9-2 17-5 2-1 4-2t4-1q4-2 5-2 7-4 15-9 3-2 8-5 1-1 3-2l1-1q6-5 13-11t12-14l2-2q-1 1-2 3h-1q1-1 2-3h1q2-3 5-8 5-7 9-16l3-7q0-1 1-4 4-8 6-19 1-3 2-9t1-6v3q1-8 1-19l-1-19v-2-3 1q-1-3-2-9l-4-14q-2-7-5-14l-2-7q-3-5-8-12-3-5-7-11l-2-2 3 3-2-2q-1-2-3-3t-2-3q-9-10-20-18v-1q-2-1-6-4-2-2-6-4t-6-4q-5-3-12-6-1 0-4-2h-1q1 0 3 1-3-1-7-2-3-2-8-3t-10-3-9-2q-2 0-6-1l2 1q-3-1-4-1h-5q-3 0-5 0t-4-1q-12 0-20-7t-8-19q0-7 4-13t10-10 14-3q41 0 79 17t65 47q28 30 42 70t10 81q-9 77-64 127-56 52-132 52-12 0-20-8t-8-18 8-19 20-8v0z m0 0z m0-341q18 0 38-2h-1q1 0 2-1t2 0q4 0 8-1t10-3 10-2q9-2 18-5l17-6q1-1 4-2h-1q4-1 8-3 3-2 6-3t6-3 5-3q16-7 31-19 3-2 8-5l2-2-2 2q1-1 1-2 7-5 15-12 13-11 26-26 2-3 5-6t5-7q2-2 2-3l2-2 2-3q1-1 2-3 13-17 23-38 0-1 1-2v-4q1-1 2-3l2-2 1-3v-1q2-5 4-10t4-12q7-20 10-44 1-1 1-4 1-5 1-12 1-5 1-9v-8-9q0-10 8-18t19-8 19 8 8 18q-1 82-39 156-34 67-100 116-86 63-196 63-12 0-20-7t-8-19q0-3 1-6t3-7 5-5 5-4 6-3 8-1v0z m0 0z" horiz-adv-x="1000" />

<glyph glyph-name="uniE67A" unicode="&#xe81f;" d="M514-216q-7 0-13 2t-12 7l-464 464q-4 5-7 12t-2 13v272q0 15 9 25l165 164q9 9 24 9h272q15 0 25-9l464-464q9-10 9-25t-9-24l-437-437q-2-2-5-4l-4-2q-3-2-6-2l-3-1h-6z m-429 512l429-428 386 386-428 429h-243l-144-143v-244z m289 190q0-31-22-54t-55-23q-22 0-39 10t-28 28-10 39 10 39 28 29 38 10 39-10 29-29 10-39z" horiz-adv-x="1000" />

<glyph glyph-name="uniE672" unicode="&#xe820;" d="M578 348q-3 4-7 6t-7 5q-9 4-20 4t-19-4q-3-2-7-5t-7-6q-6-6-9-16-1-1-1-2t-1-4-1-3 0-3-1-3v-4q0-11 4-20t9-16 14-11q5-2 10-3t10-1q10 0 19 4 3 2 7 4t7 6 6 8 4 8 2 10 1 11q0 11-3 19-1 3-3 6t-3 6-4 4z m95 170h-316q-83 0-141-59t-59-142v-114-172l124 86h392q83 0 142 58t59 142-59 142-142 59z m-242-287h-39v68h-64v-68h-39v162h39v-62h64v62h39v-162z m195 47q-6-16-18-28-6-5-13-10t-15-7q-16-6-35-6-7 0-13 0t-11 2-11 4q-17 6-29 17l-4 4-4 6t-4 6-3 5-3 7q-7 15-7 35 0 10 2 18t5 17 8 15 10 11q12 12 28 18t36 6q6 0 12-1l11-2q6-1 12-3t10-5l10-6q5-3 8-7 12-10 19-26t6-35-7-35z m142 82h-46v-129h-39v129h-46v33h131v-33z m0 0z" horiz-adv-x="1000" />

<glyph glyph-name="uniE666" unicode="&#xe821;" d="M908 462l-407 195-409-195 409-193 330 157v-231h24v242z m-407-164l-353 164 353 164 342-164z m227-158q-92-55-166-64-71-9-145 6-61 13-143 58v159h-23v-179l10-7q61-38 149-57 50-11 99-11 10 0 19 1t18 1 19 1q93 13 176 65l10 7v179h-23v-159z" horiz-adv-x="1000" />

<glyph glyph-name="uniE61A" unicode="&#xe822;" d="M793-150h-537q-64 0-108 45t-45 107q0 7 1 13 0 5 0 9t2 9 2 9 2 8q29 116 116 200 70 69 163 99-25 15-46 34t-37 42q-49 70-49 156 0 73 36 134t97 98 135 36q111 0 190-79t79-189q0-41-13-81t-36-73q-33-49-84-78 46-15 87-39t75-60q87-84 116-200 2-9 4-17t2-18l1-13q0-62-45-107t-108-45z m-250 32h250q24 0 47 10t38 26 26 38 10 46q0 6-1 11 0 7-1 14t-5 13v1q-17 71-59 130t-101 100-131 58q-6-3-11 0t-8 9q-1 1-1 2v3q0 12 10 16l3 1q69 26 111 87t42 134q0 64-32 118t-86 86-119 32q-47 0-91-19t-76-50-50-76-19-91q0-49 19-94t54-78 81-50l5-2v0h1 1l1-1h2l1-1h1 1 1v-1h1q12-3 12-16l-1-4q-2-6-8-10t-12-1l-2 1h-1l-1 1h-2q-1 0-2 1h-1q0 0-1 0t-1 1-2 1l-3 1q-108-25-186-103t-105-185v-1q-5-13-6-27 0-3-1-5t0-6q0-50 35-85t86-35h250l-111 103q-9 8-4 17l85 200q-12 13-23 33t-15 29-5 15q-1 1-1 2v2 3q-1 8 5 13 40 33 84 33h3v0h4q44 0 83-33 4-2 6-6t0-7v-3q0-2-1-4-16-45-43-77l85-200q4-9-4-17z m-118 118l99-90 100 90-84 199q-5 9 3 17 22 22 40 66-27 18-55 18h-2-2-1-2q-28 0-55-18 18-44 40-66 8-8 3-17z" horiz-adv-x="1000" />

<glyph glyph-name="uniE60F" unicode="&#xe823;" d="M891 146l-35 35 31 32 36-36z m-68 97l-39 39 20 19 39-39z m-27-28l-39 39 18 19 40-39z m-170 553h-626l1004-1000v622z m187-400q7-11 16-20 13 13 22 25 2-2 3-5t3-4l6-6q2-2 1-3l-1-1q-1 0-3 1-1 0-2-1t-2-1-3-3l-13-13 39-39q17 18 22 26 6-9 12-16 3-3 2-4l-1-1h-2q-6 2-10-2l-12-13q7-7 17-15l-11-11q-6 9-15 18l-75-75q5-4 9-8t10-8l-12-13q-4 6-9 12t-12 13l-49 48q-19 20-30 28l13 12 4-6q1-3 4-6l6-6 6-6 74 74q-9 10-18 17z m-51-162l14 0q0-28-4-52l-16 2q7 26 6 50z m-110 361q2-12 3-23t1-22-1-22l-19 1q6 36 0 64z m15-111q-2-30-11-73l-18 4q10 39 11 71z m-25-129q4-1 10 5l81 82-33 32q-28 28-42 40l12 12q12-14 40-42l33-33 12 12q17 17 19 21 3-2 7-6t7-9q3-3 2-4t-2-1-4 0-4-1-6-3l-20-20q18-17 29-27l-11-12q-3 3-6 6t-6 7-7 8-9 8l-83-84q-4-4-7-6t-7-3q-7-1-16 4t-25 19q3 4 6 10t3 12q12-15 17-20t10-7z m-176 136q-5-2-10-1t-11 2q-10 4-23 15t-35 34-39 40l-7 7q-3 3-6 6t-4 5-3 4-2 3q-5 5-5 11t3 11 10 13l59 57q16 18 25 28 2-4 4-8t6-6q6-6 3-9-1-1-5 0-3 1-14-9l101-101 50 50q-95 93-120 115l14 14q16-21 62-67t68-64q-8-5-18-16l-52-53-7-6q-4-4-7-8t-5-7l-14 14 20 19-102 101-53-54q-7-7-8-13t7-13q11-14 34-37 12-11 32-30t30-25q5-3 10-4t8 0q8 2 19 11 3-11 9-18-14-9-24-11z m137-166q-23 23-37 43t-22 49l-2 6q-1 3-2 5t-4 4q-5 5-15 6t-29 0q1 5 1 10t-2 10q41-2 54-11l58 59q-18 18-31 27l13 13q3-4 6-7t6-8 8-7q11-12 22-20-8-5-24-21l-49-48q1-2 1-4t2-4 1-5 2-4q8-34 48-74 27-26 64-53-10-2-21-12-26 24-48 46z m147-79l-5 1q-4 2-11 2-10-2-20-2l-20-2h-20q1 5 0 10t-2 8q37-7 74 5v-6q0-3 1-6t1-3q3-5 2-7z m213-22l-118-118q-12-13-21-9t-25 19l3 3q6 7 7 18 7-12 12-16t8-5q1-1 2 0t3 1 3 3 4 3l40 41-35 35q-21-18-41-30-10-5-22-9t-25-8q0 8-7 18 27 2 49 15t61 52l44 44q17 17 24 25 10-11 29-30t29-29q-7-7-24-23z m-31-9l-35 35 34 35 36-36z m-62 103l-18-19-39 39 19 19z" horiz-adv-x="1004.9" />

<glyph glyph-name="uniE618-1" unicode="&#xe824;" d="M917-168h-839q-11 0-18 8t-7 17v702q0 10 7 17t18 7h230q5 0 9-2t9-5 5-8 2-9q0-11-7-18t-18-7h-204v-652h789v652h-201q-4 0-9 2t-9 5-5 8-2 10q0 10 7 17t18 7h225q4 0 8-1t7-3 5-5 4-7 1-8v-702q-6-20-25-25z m-190 577h-451q-9 0-17 7t-7 18q0 7 3 12t9 9 12 3h451q10 0 18-7t7-17-7-18-18-7z m-134 3q-7 0-13 3t-9 9-4 13v164q-2 15-6 25t-12 18-14 10-15 6-13 2h-9q-12 0-21-4t-17-11-12-13-9-14-5-13-2-8v-162q0-25-26-25-5 0-9 2t-8 5-5 8-2 10v165 4q2 13 7 25t15 28 22 26 31 19 40 7q16 1 33-3t37-15 33-34 17-54v-2-166q0-7-3-13t-9-9-12-3z m-93 174z m-23 0q0 10 6 17t17 7q5 0 9-2t8-5 5-7 1-10q0-5-2-11t-9-9-12-3q-5 0-9 2t-8 5-4 8-2 8z m-136-458q-39 0-67 29t-28 67q0 26 13 48t35 35 47 13 49-13 35-35 13-48q0-39-29-67t-68-29z m1 167q-15 0-28-5t-22-16-16-22-5-28q0-29 21-50t50-20 50 20 20 50-20 50-50 21z m106-326h-218q-24 0-43 11t-31 32-11 42q0 35 24 61t61 25h218q14 0 27-4t24-13 19-18 12-24 4-27q0-48-42-72-20-13-44-13z m-218 120q-15 0-25-10t-11-25q0-4 1-8t3-7 4-6 6-6 6-4 8-3 8-1h218q15 0 25 10t10 25-10 25-25 10h-218z m586 133h-217q-10 0-17 7t-8 18 8 18 17 7h217q11 0 19-7t7-18-7-18-19-7z m0-123h-217q-10 0-17 7t-8 18q0 4 1 8t4 7 5 5 7 4 8 1h217q11 0 19-7t7-18q0-2-1-5t-2-6-3-4-3-4-5-3-6-2-6-1z m-38-119h-179q-10 0-17 7t-8 17q0 5 2 10t6 8 7 6 10 2h179q7 0 13-4t9-9 3-13q-6-20-25-24z" horiz-adv-x="1000" />

<glyph glyph-name="uniE620-1" unicode="&#xe825;" d="M550-34q3 0 5 1-3 0-5-1z m7-37h2-1-1z m-56 782q-106 0-196-52t-142-143-53-196 53-197 142-142 196-52q25 0 53 3h1q7 0 12 5t6 14-6 13-12 6q-1 0-2 0t-2-1l4 1q-27-4-54-4-96 0-177 48t-129 129-47 177 47 178 129 129 178 47 177-47 129-129 48-178q0-82-36-155t-97-122h-1v0 2q-7 61-44 110t-92 71q31 22 50 55t18 73q0 63-45 108t-108 45-108-45-44-108q0-16 3-31t8-30 15-25 19-23 22-19q-62-26-101-84l0-1v0l0 1q-3-6-3-12 0-3 1-6t2-4 3-4 4-4 5-2 6-1 6 1 5 2 5 3v0q2 3 3 6l2 2q24 36 63 57t84 21q72 0 124-50t55-120v-15l-1-3v0q-1-10 2-15 7-11 24-10 5 1 20 10 78 55 123 140t45 182q0 80-32 152t-83 125-125 83-152 31z m19-468q-5 0-10 0t-9 1q-8 0-18-1-26 4-47 19t-33 39-12 50q0 46 32 78t79 32 77-32 32-78q0-59-47-91-22-13-44-17z" horiz-adv-x="1000" />

<glyph glyph-name="uniE62B" unicode="&#xe826;" d="M900 2q0-60-43-105t-102-45h-550q-58 0-101 45t-43 105v522q0 58 42 100t102 42h202v62h-202q-56 0-103-27t-75-75-27-102v-522q0-42 16-81t44-68 66-46 79-17h550q85 0 146 63t61 149v294h-62v-294z m97 677q-2 5-5 8t-7 6-8 4l-191 48q-13 3-23-4t-14-19q-2-9 0-16t8-14 15-8l91-22q-82-36-151-82t-116-96-80-95-56-94q-15-29-26-59t-18-54-13-49-8-41-4-32-1-20v-9q0-13 8-22t22-10 22 10 9 22q0 8 1 24t10 61 26 89 50 103 80 110 120 104 165 89l-50-95q-4-8-4-16t4-15 12-11q7-4 15-4 18 0 26 17l90 165q7 13 1 27z" horiz-adv-x="1000" />

<glyph glyph-name="uniE62D" unicode="&#xe827;" d="M203 594q-7 6-14 8t-17 0-14-8q-9-10-9-22t9-23l45-44q9-8 22-8t22 8 9 22-9 22z m594 0l-44-45q-9-9-9-22t9-22 22-8 22 8l45 44q9 10 9 23t-9 22q-6 6-14 8t-16 0-15-8z m-673-248h-62q-13 0-22-9t-10-22 10-22 22-9h62q7 0 13 2t10 7 6 10 3 12q0 13-9 22t-23 9z m815 0h-63q-14 0-23-9t-9-22q0-6 3-12t7-10 9-7 13-2h63q7 0 15 4t11 11 5 16q0 13-10 22t-21 9z m-470 360v-62q0-7 2-13t7-9 10-7 12-3q13 0 22 9t9 23v62q0 8-4 16t-11 11-16 5q-4 0-8-2t-8-3-6-5-5-6-3-8-1-8z m-188-438q0 91 64 155t155 64 155-64 64-155-64-155-155-64q-30 0-59 8t-52 22-44 34-34 44-22 53-8 58z m-62 0q0-116 82-199t199-82 199 82 82 199-82 199-199 82q-58 0-109-22t-90-60-60-90-22-109z m219-439q0-12 9-22t22-9h62q13 0 22 9t10 23-10 22-22 9h-62q-5 0-10-2t-9-4-7-7-4-8-1-11z m-63 95q0-14 9-23t22-9h188q12 0 22 9t9 23q0 5-1 10t-5 8-7 7-8 4-10 2h-188q-12 0-22-9t-9-22z m0 0z" horiz-adv-x="1000" />

<glyph glyph-name="uniE62E" unicode="&#xe828;" d="M810 713h-620q-52 0-89-36t-36-89v-460q0-51 36-88t89-37h620q51 0 88 37t37 88v460q0 52-37 89t-88 36z m78-602q0-17-9-31t-23-23-31-9h-653q-26 0-45 18t-18 45v495q0 25 18 44t45 18h653q26 0 44-18t19-44v-495z m-122 266h-310q-9 0-16-4t-11-11-4-16q0-13 9-22t22-9h310q12 0 22 9t9 22q0 9-4 16t-12 11-15 4z m-438 204h-88q-26 0-44-19t-18-44v-64q0-26 18-44t44-18h88q18 0 32 8t22 23 9 31v64q0 25-18 44t-45 19z m12-111q0-13-9-22t-22-9h-53q-9 0-16 4t-11 11-4 16v28q0 6 2 12t7 10 10 6 12 3h53q12 0 22-9t9-22v-28z m426-258h-310q-5 0-10-2t-8-4-7-7-5-8-1-10q0-14 9-22t22-9h310q12 0 22 9t9 22-9 22-22 9z m-306 283h302q12 0 22 9t9 22q0 8-4 15t-12 12-15 4h-302q-4 0-7-1l-6-2q-3-1-5-2t-4-5l-4-4q-2-3-3-5t-2-6 0-6q0-24 21-30 5-1 10-1z m-132-171h-88q-26 0-44-18t-18-45v-63q0-17 8-32t23-22 31-9h88q18 0 32 9t22 22 9 32v63q0 13-5 25t-13 20-20 13-25 5z m12-111q0-7-4-15t-11-12-16-4h-53q-9 0-16 4t-11 12-4 15v29q0 12 9 22t22 9h53q12 0 22-9t9-22v-29z" horiz-adv-x="1000" />

<glyph glyph-name="uniE62F" unicode="&#xe829;" d="M479-213h-29-241-150v490h-39v237h186q-40 27-57 67-24 58-1 109 7 18 23 32t37 20q22 6 43 6 36 0 65-15 4-2 8-5t8-4 7-5 6-6 7-6q27-25 63-87l8-14q5-8 8-12t8-13 8-12 9-11 10-10q2-3 5-5t5-3 5-3 6-1l6-2h6 2q20 0 35 15 18 17 42 59 7 14 12 19 10 17 17 29t18 26 23 25 25 20q33 21 76 21 19 0 37-4 39-10 58-39 9-12 13-28t6-33-4-34q-10-55-59-92-2-1-4-2t-2-2h15 28 36 38 34 26 10v-237h-40v-276-100-102-12h-305-84-73z m149 338v-276h252v428h-252v-152z m-256-276v23 405h-252v-428h200 52z m195 0v604h-134v-604h134z m353 489v115h-292v-115h145 147z m-548 0v115h-292v-115h51 241z m258 196h9 8 9 8q44 2 81 21 21 11 35 27t19 35q9 33-5 53-4 7-11 11t-15 5q-5 1-10 1t-9 1q-22 0-39-10-14-8-26-20t-25-34q-9-12-23-39-22-35-33-51h27z m-232 0q-4 6-9 12t-8 13l-8 13q-3 5-8 13-14 24-21 36-23 35-43 49-21 18-49 18-3 0-5-1-27-1-38-14-10-10-11-27t2-24q7-36 43-60 43-28 103-28h48 4z" horiz-adv-x="1000" />

<glyph glyph-name="uniE642" unicode="&#xe82a;" d="M750-171h-564q-39 0-67 28t-28 67v627q0 39 28 67t67 28h439q13 0 22-9t9-23-9-22-22-10h-439q-7 0-13-2t-10-6-6-10-3-13v-627q0-9 4-16t11-12 17-4h564q13 0 22 9t9 23v502q0 8 5 15t11 12 16 4 16-4 11-12 4-15v-502q0-26-12-48t-35-34-47-13z m-185 502q-3 0-7 1t-8 4-6 5q-10 9-10 22t10 22l312 312q3 5 9 7t12 2 13-2 9-7q10-9 10-22t-10-22l-311-312q-5-5-10-7t-13-3z m-128 0h-189q-9 0-16 5t-11 12-4 15q0 13 9 23t22 9h189q12 0 22-9t9-23-9-22-22-10z m188-188h-377q-13 0-22 9t-9 23 9 22 22 9h377q13 0 22-9t9-22q0-9-4-16t-12-12-15-4z m0 0z" horiz-adv-x="1000" />

<glyph glyph-name="uniE646" unicode="&#xe82b;" d="M945 372l-105-109q-4-5-10-6t-12 0-9 6l-106 109q-6 6-5 12t1 7l9 9h96q-20 111-106 184t-198 74q-35 0-68-8t-63-22-56-34-48-46-36-54l-53 21q22 44 56 81t76 63 91 41 101 14q90 0 168-41t129-113 64-160h79q18-17 5-28z m-753 22l106-108q13-12-4-29h-92q19-65 62-117t105-82 131-29q79 0 148 38t110 102l53-21q-33-53-80-92t-107-62-124-23q-129 0-227 81t-128 205h-84l-3 3t-3 4-2 2-2 3-1 3 1 4 2 5 4 5l104 108q3 4 8 5t8 2 8-2 7-5z" horiz-adv-x="1000" />

<glyph glyph-name="uniE64D" unicode="&#xe82c;" d="M386-36q24 0 42 18t17 43q0 32-28 51v51q0 14-9 23t-22 10q-9 0-16-5t-12-11-4-17v-51q-29-19-29-51 0-17 9-31t22-21 30-9z m548 518q-1 52-17 93t-45 69-71 42-93 15q-103 0-163-57t-63-161v-166h-1v0h-352q-8 0-15-2t-13-5-12-7-9-10-8-12-5-13-2-15v-384q0-26 20-44t45-19h512q16 0 31 8t24 23 8 32v384q0 27-18 45t-44 19v0h-97v80 83q4 157 162 157t162-157v-163 0h64v165z m-325-229q13 0 23-9t10-23v-319q0-7-3-13t-7-10-10-7-13-3h-447q-14 0-23 10t-9 23v319q0 14 9 23t23 9h447z" horiz-adv-x="1000" />

<glyph glyph-name="uniE64C" unicode="&#xe82d;" d="M531 90v52q0 14-9 23t-23 9q-7 0-13-2t-10-7-7-10-2-13v-52q-9-6-15-13t-10-18-3-19q0-26 17-44t43-17 42 17 18 44q0 15-8 28t-20 22z m225 241v0h-30v166q-3 103-63 161t-163 57q-104 0-164-57t-62-160v-167h-1 0v0h-31q-11 0-20-2t-17-10-14-14-9-17-3-20v-384q0-26 19-45t45-18h512q26 0 45 18t18 45v384q0 26-18 45t-44 18z m-418 0v81 83q4 157 162 157 78 0 119-40t42-117h1v-164h-1-323z m385-447h-448q-13 0-23 9t-9 23v320q0 9 5 16t11 12 16 4h448q13 0 23-9t9-23v-320q0-22-22-30-5-2-10-2z" horiz-adv-x="1000" />

<glyph glyph-name="uniE602" unicode="&#xe82e;" d="M479 575l-9-96q-234-52-234-192 0-40 75-87t74-117q0-61-39-98t-104-37q-74 0-126 52t-52 136q0 165 106 281t309 158z m457 0l-9-96q-117-26-175-74t-59-118q0-40 75-87t74-117q0-61-39-98-13-13-29-21t-34-12-40-4q-76 0-127 52t-50 136q0 167 105 283t308 156z" horiz-adv-x="1000" />

<glyph glyph-name="uniE603-1" unicode="&#xe82f;" d="M521-52l9 96q77 17 130 44t78 65 26 84q0 19-19 41t-56 46q-74 47-74 116 0 10 1 19t3 19 6 17 7 16 10 14 12 14q39 36 103 36 75 0 127-52t52-136q0-82-27-153t-80-128q-105-116-308-158z m-457 0l8 96q235 53 235 193 0 40-76 87-74 47-74 116 0 61 39 98t104 37q76 0 127-52t51-136q0-168-107-283t-307-156z" horiz-adv-x="1000" />

<glyph glyph-name="uniE609" unicode="&#xe830;" d="M577 498q-8 8-18 13-3 1-7 3t-8 2-9 0q-12 0-22-5t-18-13q-4-3-7-8t-5-11q-2-4-2-8v-8q-1-4-1-7 0-14 3-25t12-20q4-4 8-7t10-6q10-4 23-4t23 4 17 13q4 4 7 9t5 10q5 12 5 26 0 5-2 12t-3 11q-4 12-11 19z m115 208h-384q-67 0-123-34t-89-89-33-123v-139-210l152 104h477q67 0 123 33t90 89 33 123-33 123-90 89-123 34z m-295-351h-48v83h-77v-83h-48v198h48v-75h77v75h48v-198z m238 58q-8-20-22-34t-34-21q-11-4-21-6t-23-2q-22 0-42 7t-34 22-23 34-8 43q0 7 1 15t3 14l4 13q8 19 23 33 2 3 5 5t7 4l8 4 5 4q4 2 8 3 11 4 22 6t21 2q24 0 44-8 4-1 7-3t8-4 7-4 6-4 6-5q7-7 13-15t10-18q8-19 8-42t-9-43z m173 99h-56v-157h-48v157h-56v41h160v-41z" horiz-adv-x="1000" />

<glyph glyph-name="uniE603-2" unicode="&#xe831;" d="M501 640q-102 0-187-50t-136-135-50-187 50-187 136-136 186-50q76 0 145 29t119 80 80 119 29 145q0 101-50 187t-135 135-187 50z m240-277l-260-261q-2-2-4-3l-2-1q0-1-2-3t-2-3q-5-6-12-8t-14-3-14 3-13 8l-111 112q-5 4-8 10t-3 11 0 11 3 11 8 9q7 8 16 11t19 0 17-11l85-85 245 244q10 11 26 11t26-11 11-26-11-26z" horiz-adv-x="1000" />

<glyph glyph-name="uniE61A-1" unicode="&#xe832;" d="M500 640q-101 0-186-50t-136-135-50-187 50-187 136-136 187-50 187 50 135 136 50 187q0 147-100 255-99 105-243 116-15 1-30 1z m164-485q4-4 6-10t4-10 0-11-4-10-6-10q-11-10-25-10t-26 10l-113 113-112-113q-7-7-16-9t-19 0-16 9-9 16 0 19 9 16l113 113-113 112q-11 11-11 26t11 25q7 7 16 9t19 0 16-9l112-113 113 113q7 7 16 9t19 0 16-9q2-2 4-5t3-6l2-5q1-3 1-6v-6q0-3-1-6l-2-6q-1-3-3-5t-4-6l-113-112z" horiz-adv-x="1000" />

<glyph glyph-name="uniE69A" unicode="&#xe833;" d="M588 737q7 15 17 23t20 8 20-8 17-23l100-202q14-32 50-58t70-30l222-32q34-5 41-27t-19-46l-160-156q-25-24-38-66t-8-78l38-221q6-35-12-48t-48 4l-199 104q-30 17-74 17t-74-17l-198-104q-21-10-36-9t-22 16-3 37l38 221q6 36-8 78t-38 66l-160 156q-33 33-13 57 13 12 36 16l221 32q23 3 47 16t44 32 29 40z" horiz-adv-x="1250" />

<glyph glyph-name="uniE600" unicode="&#xe834;" d="M500 768q-102 0-194-40t-160-106-106-160-40-194 40-194 106-160 160-107 194-39 194 39 160 107 106 160 40 194-40 194-106 160-160 106-194 40z m0-950q-92 0-175 35t-143 97-97 143-35 175 35 175 97 143 143 97 175 35q62 0 120-16t107-45 91-71 71-91 45-107 16-120q0-73-23-142t-64-124-97-97-124-64-142-23z m175 458q-11 0-18-7t-7-19v-182h-300v182q0 7-3 13t-9 9-13 4q-10 0-17-7t-7-19v-208q0-9 7-17t17-7h350q5 0 9 2t8 5 5 8 2 9v208q0 7-3 13t-9 9-12 4z m-157 285q-7 7-18 7-5 0-9-2t-9-5l-275-254q-7-7-7-17t8-16 17-7q10 1 17 7l258 238 261-241q8-6 17-6 5 0 10 2t8 4q2 2 3 4l2 4q1 2 1 4t1 5-1 4-1 4l-2 4q-1 2-3 4z" horiz-adv-x="1000" />

<glyph glyph-name="uF007D" unicode="&#xe835;" d="M792 266q-14 0-24-10t-10-24v-305q-2-34-14-45t-46-13h-390q-28 0-41 4t-19 19-8 41v299q0 15-9 24t-25 10-24-10-10-24v-363q0-22 10-38t28-23 41-7h41v-1l412 1h41q35 0 58 18t23 50v43h1v320q0 3-1 6t-2 6-2 5-4 5l-3 4q-2 2-5 4t-6 2-6 2-6 0z m189 6l-451 448q-2 4-5 7-11 12-28 9-13 0-22-10v-1h-1l-3-3-452-451q-24-23-2-45 24-25 48-2l434 428 438-427q12-12 24-11t23 13q8 7 10 15t-2 14-11 16z m-257 356h103v-103q0-14 10-24t24-10 24 10 11 24v139q0 13-11 23t-24 11h-137q-8 0-14-3t-11-8-8-10-2-13q0-15 10-25t25-11z" horiz-adv-x="1000" />

<glyph glyph-name="uniE601" unicode="&#xe836;" d="M639 120q8-6 26-6 9 0 15 5t9 12 2 13 0 8q-4 16-16 24-24 17-49 29t-52 21q41 22 73 56t49 80 18 94q0 107-76 183t-184 76-183-76-76-183q0-74 38-136t102-94q-59-20-109-56t-86-84-57-108-21-124v-3q1-4 2-8t4-7 6-7 8-4 8-2q11 0 23 8t13 17q0 94 42 169t117 118 167 42q34 0 68-7t62-19 57-32v1 0z m-380 336q0 81 57 138t138 57q54 0 99-26t71-71 26-98-26-98-71-71-99-27q-81 0-138 57t-57 139v0z m664-381q12 10 12 27t-11 27-26 11q-8-1-15-3t-13-9l-172-173-59 59q-11 12-27 12t-27-11-11-26 10-26l85-86q12-10 29-10 4 0 9 1t7 2 7 3 6 5l-2-3 198 200v0z" horiz-adv-x="1000" />

<glyph glyph-name="uniE602-1" unicode="&#xe837;" d="M81-166v574l175 42 3-12q2-10 5-21t6-22 7-22 7-24 9-23 10-24q2-6 4-11t6-11l5-10q3-6 6-11l1-3v-363z m25 554v-523l196 47v338q-6 10-11 21t-11 21q-5 12-9 24t-9 25q-2 5-4 10t-3 9-3 10l-2 9q-2 5-3 10-5 17-9 31z m417-247q-3 0-6 1t-8 2-8 7q-36 34-67 71-17 19-31 39t-26 41q-24 41-40 86-6 16-10 31t-7 31-4 32v1 4q0 2-1 4v8q0 43 17 81 17 36 45 64t65 43q19 8 39 12t42 5 42-5 39-12q38-16 66-43 9-10 17-20t15-22 12-23 10-25 5-26 2-29v-9q0-7-1-13-1-12-3-23t-5-24-7-23-7-22q-16-45-40-85-24-41-56-78-32-37-67-71-6-6-11-8t-11-2z m-183 343q5-45 19-88 16-42 39-82t54-77 66-70h1l4-2q2 0 5 2 36 34 66 70t54 75 38 81q15 41 20 87v1q0 2 1 4t0 5v9q0 10-1 19t-3 18-4 17-7 17q-14 32-39 56t-58 39-72 14-72-14q-11-4-21-10t-19-13-18-16-15-17-13-19-11-20q-7-17-11-34t-4-37q0-1 0-2t1-4v-2-4-3z m183-77q-20 0-38 7-7 3-15 8t-14 12-12 13-8 16q-8 18-8 36 0 5 0 10t2 10 2 9 4 9q4 8 8 16t12 14q13 13 30 19t37 7 38-7q8-4 16-8t14-12 12-13 8-16 6-18 2-20q0-18-8-36t-19-30q-7-6-15-11t-16-8l-12-4q-6-2-13-3t-13 0z m0 163q-7 0-15-2t-13-4q-13-5-22-15t-16-22q-2-4-3-8t-1-10-1-10q0-13 5-26 3-7 7-12t9-10q3-3 6-6t7-5 9-4q13-6 28-6t29 5 22 16q2 1 3 2t3 3 2 3 2 3 2 4 2 3l2 4 2 6 2 8q1 3 1 6v6q0 8-1 15t-4 13q-6 13-16 22-5 5-10 9t-12 6q-14 6-29 6z m85-738l-225 56v292l20-22q4-5 8-9t8-8 7-8l8-8 7-7q3-3 7-6 23-22 39-37 17-15 32-27 4 3 7 6t7 6q3 3 7 6t8 8l9 8q13 14 31 31l20 19v-300z m-202 75l178-44v213q-6-5-11-11l-7-6-5-7q-3-3-6-5t-6-5q-13-10-23-18l-6-7-8 6q-19 15-40 34-6 5-12 11t-14 13-14 13q-13 12-26 25v-212z m261-73v363l3 4 10 9q5 6 10 11 16 18 30 43t25 54q6 14 11 29t9 29q9 30 16 55l1 7 131 29v-574z m23 353v-322l199 46v526l-87-20-4-15q-2-8-4-16t-6-17q-9-30-20-60t-28-57q-8-13-16-25t-17-21v-1q-3-2-5-5t-5-5q-3-4-7-8z m220 285z" horiz-adv-x="1000" />

<glyph glyph-name="uniE604-1" unicode="&#xe838;" d="M727 179q-44 32-95 51 26 17 49 39 75 74 75 181v2 1q23 18 23 43v89l158 45-438 124-436-124 63-18v-201q0-8 4-16t11-11 15-5q7 0 13 3t9 7 7 10 3 12v183l32-9v-89q0-9 3-18t8-14 12-11v-3q0-107 75-181 11-12 23-21t25-17q-51-20-94-52-100-74-143-194-5-12 0-24t18-16 24 1 16 18q37 102 122 165 86 64 190 64t191-64q84-63 122-165 6-20 28-20 3 0 6 0t5 2q12 4 18 15t0 24q-21 58-57 108t-85 86z m-228 285h-8q-4 0-8 1t-7 0h-8-7q-95 9-171 46l-4 2q-2 1-5 1v43l210-59q8-2 17 0l210 59v-43q-5-1-9-3-76-37-171-46-18-1-39-1z m0 226l212-60-212-60-211 60z m-192-266q60-16 147-20 8 0 15-1t15-1 15 0q23 0 46 2 87 4 147 20-9-71-64-120t-128-49-129 49-64 120z m0 0z" horiz-adv-x="1000" />

<glyph glyph-name="uniE605" unicode="&#xe839;" d="M792 755h-554q-26 0-48-13t-36-36-13-48v-42h47v42q0 13 6 25t19 19 25 6h554q11 0 21-3t16-11 11-17 4-19v-598q0-15-7-26t-19-19-26-7h-554q-21 0-36 15t-14 37v43h-47v-43q0-41 28-70t69-29h554q41 0 70 29t29 70v598q0 40-29 69t-70 28z m-552-233h-123q-10 0-16-7t-7-16 7-16 16-7h123q9 0 16 7t7 16-7 16-16 7z m0-140h-123q-10 0-16-7t-7-16 7-16 16-7h123q9 0 16 7t7 16-7 16-16 7z m0-140h-123q-10 0-16-7t-7-17 7-16 16-6h123q9 0 16 6t7 16-7 17-16 7z m388 26q35 22 56 59t20 80q0 68-48 116t-116 48-116-48-48-116q0-17 3-34t10-31 16-29 20-24 25-20q-42-18-72-50t-42-73h50q18 42 60 68t92 26q34 0 65-12t53-33 34-49h51q-12 41-42 73t-71 49z m-88 22q-49 0-83 34t-34 83 34 83 83 34 83-34 34-83-34-83-83-34z" horiz-adv-x="1000" />

<glyph glyph-name="uniE606" unicode="&#xe83a;" d="M672 433h-52q0-24-9-46t-26-38-38-26-47-10-47 10-38 26-26 38-9 46h-52q0-47 23-86t63-63 86-23q71 0 122 50t50 122z m0 0z m326-179q0 65-33 119t-87 83q-1 61-21 118t-54 103-82 79-103 54-118 19q-102 0-188-50t-137-135-53-188q-55-30-87-83t-33-119q0-79 48-140t123-81l-51-166h52l16 51 47 155h-2-2q-74 0-127 52t-52 128q0 43 19 81t53 63q15-103 80-183t159-116l-55-180-16-51h52l16 51 75 212q-124 25-200 127-63 86-63 194 0 89 43 164t119 118 164 44 164-44 119-118 43-164q0-78-34-147t-94-114-134-60l74-212 16-51h52l-16 51-55 180q95 36 159 116t80 183q33-25 53-63t19-81q0-75-52-128t-127-52h-2-2l47-155 16-51h52l-51 166q74 19 123 81t48 140z m0 0z" horiz-adv-x="1000" />

<glyph glyph-name="uF0043" unicode="&#xe83b;" d="M507 618q27 0 46-19t18-45v-578q0-26-18-45t-46-20-45 20-19 45v578q0 27 19 45t45 19z m44-19q19-18 19-45t-19-46l-257-257q-19-18-45-18t-46 18-18 46 18 45l258 257q19 19 45 19t45-19z m-90 0q19 19 45 19t45-19l258-257q18-18 18-45t-18-46-46-18-45 18l-257 257q-13 13-17 30t0 33 17 28z" horiz-adv-x="1000" />

<glyph glyph-name="uniE623" unicode="&#xe83c;" d="M999 536q-4 5-28 33t-63 73-75 83h-333v83q0 12-4 21t-11 12-12 6-10 3h-5q-7 0-12-1t-13-4-12-13-4-24v-83h-334q-38 0-60-22t-23-61v-292q0-25 10-44t29-29 44-10h334v-375-42h83v42 375h330q158 161 169 176v93z m-91-67q-1-3-22-22t-48-47-46-50h-667q-10 0-17 2t-12 4-8 8-3 11-2 17v208q0 23 9 33t33 9h667q14-18 35-41t37-42 30-33 14-16q6-7 6-20t-6-21z" horiz-adv-x="1001" />

<glyph glyph-name="uniE612" unicode="&#xe83d;" d="M405 436l-179 51q-8 2-15 0t-11-7-7-11q-1-5-1-9t2-7 4-7 6-6 7-3l181-51 6-1q20 0 25 19 3 11-2 20t-16 12z m0-310l-179 51q-11 3-20-2t-13-15 3-20 15-12l181-50q4-1 6-1 20 0 25 18 2 7 0 13t-6 12-12 6z m0 156l-179 50q-11 2-20-2t-13-16q-1-5 0-10t3-9 6-8 9-4l181-51q3-1 6-1 3 0 6 0t6 2 4 3l4 4q2 2 3 4t2 5q1 4 1 8t-1 6-2 6-4 5-5 5-7 3z m200-205q3 0 6 1l181 49q10 3 15 13t3 20-13 15-19 2l-180-51q-10-3-15-12t-3-19q2-9 9-14t16-4z m250 602l-341-93q-7-2-18-1t-18 1l-332 93q-22 6-40-8t-18-36v-627q0-18 13-35t31-21l332-93q14-3 32-3 18 0 31 3l340 93q20 4 32 21t13 35v627q0 23-18 36t-39 8z m-709-679q-7 2-7 8v618l325-88q3-1 10-2h1v-626z m715 8q0-1-2-2l-2-4q-1-1-2-1l-330-89v625h2l334 90v-619z m-256 377l6 1 181 51q10 3 15 12t3 20-13 15-19 3l-180-51q-10-3-15-12t-3-20q5-19 25-19z m0-154l6 1 181 51q10 3 15 12t3 19-13 16-19 2l-180-50q-10-3-15-13t-3-20q5-18 25-18z" horiz-adv-x="1000" />

<glyph glyph-name="uniE6B9" unicode="&#xe83e;" d="M800 624l-23-7q-65-21-155-21-48 0-139 19-91 19-140 19-102 0-136-23l-7-5v-704h33v318q15 6 41 10t69 5q11 0 22-1t23-3 21-3 23-3 21-4 24-6q93-19 145-19 28 0 56 2t46 6 34 6 22 6 9 2l11 4v402z m-33-377q-8-2-17-4t-23-5-29-5-35-3-41-1q-48 0-139 19-91 20-140 20-11 0-20 0t-18-1-15-1-15-2-12-2-11-2-10-3-9-2v331q38 15 110 15 8 0 16 0t18-1 16-2 17-2 16-3 17-4 16-3 18-4q93-20 145-20 79 0 145 17v-332z" horiz-adv-x="1000" />

<glyph glyph-name="uniE744" unicode="&#xe83f;" d="M328 658q21-23 18-41-3-21-26-35-7-4-9-12t2-15q2-5 7-8t10-3 10 3 12 8 19 21 15 34q1 5 1 9 1 34-31 68-1 1-3 3-3 2-6 4t-10 12-6 20q-1 5 0 10t4 10 5 11 9 11 10 11q4 4 6 9t0 10-5 9q-5 6-14 6t-14-5q-22-20-33-42t-8-44q1-13 5-24t12-19 11-13 9-8z m136 0q21-23 18-41-2-21-26-35-7-4-9-12t1-15q3-5 8-8t10-3 10 3 12 8 19 21 15 34q1 2 1 4v5q0 34-31 68l-3 3q-3 2-6 4t-9 12-7 20q-1 5 0 10t3 10 6 11 8 11 11 11q4 4 6 9t0 10-5 9q-6 6-14 6t-14-5q-23-20-33-42t-8-44q1-16 9-31t15-22 13-11z m358-218q-4 0-8-1t-9-1-8-2l-10-2q-4-2-8-3t-7-4-7-4-7-5-7-5v66q0 8-9 13t-16 6h-626q-4 0-8-2t-6-4-3-6-2-7v-197q0-83 29-147 24-52 65-88 47-42 96-53h3 256 2 2q55 10 109 50 47 37 75 87 33 65 33 148v49l1 5q0 20 10 35t26 22 35 8 33-8 23-22 8-35q0-27-22-46t-53-24q-8 0-13-5t-5-12q0-5 2-9t7-7 9-2q44-4 80 29t36 76q0 13-3 25t-7 22-12 20-15 17-20 13-23 7-26 3z m-116-158q0-72-29-126-23-43-63-74-39-30-91-42h-236q-4 1-9 4t-15 7-21 12-23 19q-48 42-63 75-25 55-25 129v170h575v-174z m31-340h-636q-8 0-14-8t-6-16 6-15 14-7h636q7 0 13 8t6 15q0 4-2 9t-3 7-6 5-8 2z" horiz-adv-x="1000" />

<glyph glyph-name="uniE647" unicode="&#xe840;" d="M909-206h-227q-20 0-37 9t-31 23q-13-15-31-23t-37-9h-182-91-182q-37 0-64 27t-27 64v773q0 38 27 65t64 26h455q24 0 45-12t34-33 12-46v-104q7 4 14 7t15 4 16 2h227q38 0 65-27t26-64v-591q0-13-3-24t-9-22-14-19-19-14-21-9-25-3z m-636 91h91v45q0 20-13 33t-33 13q-8 0-17-4t-15-10-9-14-4-18v-45z m273 682q0 38-27 64t-64 27h-273q-15 0-29-5t-25-12-19-20-13-25-5-29v-591q0-38 27-65t64-26h46v91q0 18 13 32t32 13h91q19 0 32-13t13-32v-91h46q37 0 64 26t27 65v591z m363-182q0 19-7 35t-20 29-28 20-36 7h-90q-38 0-65-26t-26-65v-409q0-24 12-45t33-34 46-12h90q38 0 65 26t26 65v409z m-181-318h90v-91h-90v91z m0 181h90v-90h-90v90z m0 137h90v-91h-90v91z m-364-181h91v-91h-91v91z m0 181h91v-91h-91v91z m0 182h91v-91h-91v91z m-182-363h91v-91h-91v91z m0 181h91v-91h-91v91z m0 182h91v-91h-91v91z" horiz-adv-x="1001" />

<glyph glyph-name="uniE662" unicode="&#xe841;" d="M141 91h718q22 0 36 15t14 35v440q0 21-14 36t-36 14h-718q-22 0-36-14t-14-36v-440q0-9 2-16t7-14 11-10 14-7 16-3z m49 441h620v-341h-620v341z m763-491h-906q-10 0-17-6t-7-17v-56q0-9 7-15l33-36q6-6 16-6h839q10 0 17 6l35 36q7 6 7 15v56q0 10-7 17t-17 6z m-366-80q0-5-4-5h-166q-4 0-4 5v23q0 5 4 5h166q1 0 2-2t2-3v-23z" horiz-adv-x="1000" />

<glyph glyph-name="uniE663" unicode="&#xe842;" d="M500 569q-92 0-155-64t-64-155 64-155 155-64 155 64 64 155-64 155-155 64z m0-391q-70 0-121 51t-51 121 51 121 121 51 121-51 51-121-51-121-121-51z m250 310q0 20 15 35t35 15 35-15 15-35-15-35-35-15-35 15-15 35z m94 143h-94l-21 66q-5 11-18 20t-23 8h-375q-14 0-25-8t-16-20l-22-66h-94q-40 0-67-27t-26-66v-438q0-39 27-66t66-28h688q40 0 67 27t27 67v438q0 40-27 66t-67 27z m47-531q0-19-14-33t-33-14h-688q-18 0-32 14t-15 33v438q0 18 15 32t32 14h94 34l10 32 21 62h370l21-62 10-32h34 94q18 0 33-14t14-32v-438z" horiz-adv-x="1000" />

<glyph glyph-name="uniE77F" unicode="&#xe843;" d="M375-186q-31 0-53 21l-255 255q-21 22-21 53t21 53l430 429q19 19 48 31t55 12h225q31 0 53-22t22-53v-225q0-26-12-55t-31-48l-429-430q-22-21-53-21z m225 804q-16 0-36-9t-32-19l-428-429q-8-7-8-18t8-18l253-255q7-6 18-6t18 6l429 430q11 11 20 31t9 37v225q0 10-8 17t-18 8h-224-1z m125-200q-31 0-53 22t-22 53 22 53 53 22 53-22 22-53-22-53-53-22z m0 100q-10 0-17-7t-8-18 8-17 17-8 18 8 7 17-7 18-18 7z" horiz-adv-x="1000" />

<glyph glyph-name="uniE646-1" unicode="&#xe844;" d="M1092 469q-1 3-3 6l-151 254-119-260h273z m-749 0h404l-202 286z m161 299h-286q-17 0-33-11l122-267z m403-7q-14 7-28 7h-292l196-278z m-576-333l214-660h1l213 660h-428z m-176 294l-147-247-3-6h266z m-155-294l1-2h2q5-6 11-12l467-584-193 598h-288z m1093 0h-291l-197-613 480 599q5 5 8 14z m0 0z" horiz-adv-x="1092.8" />
</font>
</defs>
</svg>
